/* XPM */
static char *result[] = {
/* columns rows colors chars-per-pixel */
"64 64 118 2 ",
"   c #6E453C",
".  c #724B3D",
"X  c #76513E",
"o  c #774F42",
"O  c #775140",
"+  c #7A5542",
"@  c #7E5C42",
"#  c #815E44",
"$  c #826244",
"%  c #866846",
"&  c #896B46",
"*  c #876448",
"=  c #8C6D4A",
"-  c #8D7347",
";  c #8F714C",
":  c #92744B",
">  c #947B4A",
",  c #9A7E4C",
"<  c #9A7D51",
"1  c #97814C",
"2  c #9B844D",
"3  c #9E894E",
"4  c #9D8451",
"5  c #9F8953",
"6  c #A1864E",
"7  c #A38C4F",
"8  c #A88C4F",
"9  c #AC914F",
"0  c #A18553",
"q  c #A48C52",
"w  c #A98E53",
"e  c #A28D5A",
"r  c #A79050",
"t  c #AC9351",
"y  c #AF9956",
"u  c #A5905E",
"i  c #AD945C",
"p  c #B09752",
"a  c #B49B53",
"s  c #B99E54",
"d  c #B1965D",
"f  c #B39A5D",
"g  c #B99F5C",
"h  c #BDA255",
"j  c #B6A15B",
"k  c #BBA45A",
"l  c #AD9562",
"z  c #A2916A",
"x  c #AA976B",
"c  c #AD9B6B",
"v  c #B69D61",
"b  c #B99F61",
"n  c #B09769",
"m  c #B39C6B",
"M  c #AE9A72",
"N  c #B29D72",
"B  c #B5A063",
"V  c #BCA262",
"C  c #B6A16D",
"Z  c #BAA46E",
"A  c #B7A074",
"S  c #BBA474",
"D  c #B8A278",
"F  c #C2A656",
"G  c #C5A856",
"H  c #C2A75A",
"J  c #C4A95B",
"K  c #CAAF5E",
"L  c #C1A764",
"P  c #C2AC6D",
"I  c #C6B46F",
"U  c #CAB66A",
"Y  c #CEBB6E",
"T  c #C6AD71",
"R  c #CAB273",
"E  c #CFBD72",
"W  c #C5B279",
"Q  c #CEBE7F",
"!  c #D1BF72",
"~  c #D6C06F",
"^  c #D5C273",
"/  c #D9C674",
"(  c #DCC876",
")  c #D6C27C",
"_  c #D9C77C",
"`  c #DAC879",
"'  c #B3A68A",
"]  c #B5A88D",
"[  c #BCAD8F",
"{  c #B3A594",
"}  c #B6AA95",
"|  c #BBAC94",
" . c #BFBBB5",
".. c #CDBD83",
"X. c #D0BF81",
"o. c #C2B392",
"O. c #CABE97",
"+. c #C3BEB7",
"@. c #D5C483",
"#. c #D9C784",
"$. c #CEC29C",
"%. c #D4C79B",
"&. c #D5C89F",
"*. c #C6C1B7",
"=. c #C9C4B8",
"-. c #C6C4C3",
";. c #C9C6C1",
":. c #CEC9C2",
">. c #CFCECD",
",. c #D2CCC3",
"<. c #D0CFCD",
"1. c #D7D1C5",
"2. c #D9D2C5",
"3. c #D3D1CD",
"4. c #D5D5D5",
"5. c #EEEEEE",
"6. c #F9F9F9",
"7. c None",
/* pixels */
"7.4.4.4.4.4.4.4.4.4.4.4.4.4.4.4.4.4.4.4.4.4.4.4.4.4.4.4.4.4.4.4.4.4.4.4.4.4.4.4.4.4.4.4.4.4.4.4.4.4.4.4.4.4.4.4.4.4.4.4.4.4.4.7.",
"4.5.5.5.5.5.5.5.5.5.5.5.6.5.5.5.5.5.5.5.5.5.5.5.5.5.5.5.5.5.5.5.5.5.5.5.5.5.6.5.5.5.5.5.5.5.5.5.5.5.5.5.5.5.5.5.5.5.5.6.5.5.5.4.",
"4.5.6.6.6.6.6.6.6.6.6.6.6.6.6.6.6.6.6.5.6.6.6.6.6.6.6.6.6.6.6.6.6.6.6.6.6.6.6.6.6.6.6.5.6.6.6.6.6.6.6.6.6.6.6.6.6.6.6.6.6.6.5.4.",
"4.5.6.5.5.5.5.5.5.5.5.5.5.5.5.5.5.5.5.5.5.5.5.5.5.5.5.5.5.5.5.5.5.5.5.5.5.5.5.5.5.5.5.5.5.5.5.5.5.5.5.5.5.5.5.5.5.5.5.5.5.6.5.4.",
"4.5.6.5.5.5.5.5.5.5.5.5.5.5.5.5.5.5.5.5.5.5.5.5.5.5.5.5.5.5.5.5.5.5.5.5.5.5.5.5.5.5.5.5.5.5.5.5.5.5.5.5.5.5.5.5.5.5.5.5.5.6.5.4.",
"4.5.6.5.5.5.5.5.5.5.5.5.5.5.5.5.5.5.5.5.5.5.5.5.5.5.5.5.5.5.5.5.5.5.5.5.5.5.5.5.5.5.5.5.5.5.5.5.5.5.5.5.5.5.5.5.5.5.5.5.5.6.5.4.",
"4.5.6.5.5.5.5.5.5.5.5.5.5.5.5.5.5.5.5.5.5.5.5.5.5.5.5.5.5.5.5.5.5.5.5.5.5.5.5.5.5.5.5.5.5.5.5.5.5.5.5.5.5.5.5.5.5.5.5.5.5.6.5.4.",
"4.5.6.5.5.5.5.5.5.5.5.5.5.5.5.5.5.5.5.5.5.5.5.5.5.5.5.5.5.5.5.5.5.5.5.5.5.5.5.5.5.5.5.5.5.5.5.5.5.5.5.5.5.5.5.5.5.5.5.5.5.6.5.4.",
"4.5.6.5.5.5.5.5.5.5.5.5.5.5.5.5.5.5.5.5.5.5.5.5.5.5.5.5.5.5.5.5.5.5.5.5.5.5.5.5.5.5.5.5.5.5.5.5.5.5.5.5.5.5.5.5.5.5.5.5.5.6.5.4.",
"4.5.6.5.5.5.5.5.5.5.5.5.5.5.5.5.5.5.5.5.5.5.5.5.5.5.5.5.5.5.5.5.5.5.5.5.5.5.5.5.5.5.5.5.5.5.5.5.5.5.5.5.5.5.5.5.5.5.5.5.5.6.5.4.",
"4.5.6.5.5.5.5.5.5.5.5.5.5.5.5.5.5.5.5.5.5.5.5.5.5.5.5.5.5.5.5.5.5.5.5.5.5.5.5.5.5.5.5.5.5.5.5.5.5.5.5.5.5.5.5.5.5.5.5.5.5.6.5.4.",
"4.5.6.5.5.5.5.5.5.5.5.5.5.5.5.5.5.5.5.5.5.5.5.5.5.5.5.5.5.5.5.5.5.5.5.5.5.5.5.5.5.5.5.5.5.5.5.5.5.5.5.5.5.5.5.5.5.5.5.5.5.6.5.4.",
"4.5.6.5.5.5.5.5.5.5.5.5.5.5.5.5.5.5.5.5.5.5.5.5.5.5.5.5.5.5.5.5.5.5.5.5.5.5.5.5.5.5.5.5.5.5.5.5.5.5.5.5.5.5.5.5.5.5.5.5.5.6.5.4.",
"4.5.6.5.5.5.5.5.5.5.5.5.5.5.5.5.5.5.5.5.5.5.5.5.5.5.5.5.5.5.5.5.5.5.5.5.5.5.5.5.5.5.5.5.5.5.5.5.5.5.5.5.5.5.5.5.5.5.5.5.5.6.5.4.",
"4.5.6.5.5.5.5.5.5.5.5.5.5.5.5.5.5.5.5.5.5.5.5.5.5.5.5.5.5.5.5.5.5.5.5.5.5.5.5.5.5.5.5.5.5.5.5.5.5.5.5.5.5.5.5.5.5.5.5.5.5.6.5.4.",
"4.5.6.5.5.5.5.5.5.5.5.5.5.5.5.5.5.5.5.5.5.5.5.5.5.5.4.=.;.,.,.1.1.2.1.;.-.4.5.5.5.5.5.5.5.5.5.5.5.5.5.5.5.5.5.5.5.5.5.5.5.6.5.4.",
"4.5.6.5.5.5.5.5.5.5.5.5.5.5.5.5.5.5.5.5.5.5.5.5.4.+.o.T P T T T I E ) #.@.$.=.4.5.5.5.5.5.5.5.5.5.5.5.5.5.5.5.5.5.5.5.5.5.6.5.4.",
"4.5.6.5.5.5.5.5.5.5.5.5.5.5.5.5.5.5.5.5.5.5.4.+.o.I G J G G G G G H K ~ / ` #.%.=.4.5.5.5.5.5.5.5.5.5.5.5.5.5.5.5.5.5.5.5.6.5.4.",
"4.5.6.5.5.5.5.5.5.5.5.5.5.5.5.5.5.5.5.5.5.<.} Z J H G H F F G F F F H K ^ / ` ` #.$.>.5.5.5.5.5.5.5.5.5.5.5.5.5.5.5.5.5.5.6.5.4.",
"4.5.6.5.5.5.5.5.5.5.5.5.5.5.5.5.5.5.5.5.<.o.L F h G h H F h h h h h h J ~ / / / / #.$.3.5.5.5.5.5.5.5.5.5.5.5.5.5.5.5.5.5.6.5.4.",
"4.5.6.5.5.5.5.5.5.5.5.5.5.5.5.5.5.5.5.3.o.L F h h h h k j 2 - - - : 2 k I ^ / / / / _ &.<.5.5.5.5.5.5.5.5.5.5.5.5.5.5.5.5.6.5.4.",
"4.5.6.5.5.5.5.5.5.5.5.5.5.5.5.5.5.5.<.o.V F F h h h t > > 1 1 > > 1 1 > 1 B ~ / / / / _ $.>.5.5.5.5.5.5.5.5.5.5.5.5.5.5.5.6.5.4.",
"4.5.6.5.5.5.5.5.5.5.5.5.5.5.5.5.5.4.} V h h h h j > > 1 1 3 1 & - 5 2 2 1 1 e I ^ ^ / / _ $.4.5.5.5.5.5.5.5.5.5.5.5.5.5.5.6.5.4.",
"4.5.6.5.5.5.5.5.5.5.5.5.5.5.5.5.5.*.Z s h h h y > 1 3 3 3 3 1 . + 5 5 3 3 3 1 5 Z ^ ^ / ^ @.*.5.5.5.5.5.5.5.5.5.5.5.5.5.5.6.5.4.",
"4.5.6.5.5.5.5.5.5.5.5.5.5.5.5.5.4.[ k h h h y > 1 3 3 3 6 3 -   O < 4 4 3 3 3 2 4 I ^ ^ ^ ) $.4.5.5.5.5.5.5.5.5.5.5.5.5.5.6.5.4.",
"4.5.6.5.5.5.5.5.5.5.5.5.5.5.5.5.+.C s s h j 1 2 7 7 7 7 1 @ . . o O + - 3 7 3 7 4 5 E ^ ^ ^ @.+.5.5.5.5.5.5.5.5.5.5.5.5.5.6.5.4.",
"4.5.6.5.5.5.5.5.5.5.5.5.5.5.5.4.[ g s s a r 2 3 7 7 7 3 $ . # , : & @ > 3 7 7 7 3 3 B ~ ^ ~ ^ O.4.5.5.5.5.5.5.5.5.5.5.5.5.6.5.4.",
"4.5.6.5.5.5.5.5.5.5.5.5.5.5.5.-.N a a s h 1 3 r r r 7 2 X O , 7 7 7 7 7 r r r r r 5 5 Y ^ ~ ^ ..-.5.5.5.5.5.5.5.5.5.5.5.5.6.5.4.",
"4.5.6.5.5.5.5.5.5.5.5.5.5.5.5.;.C s a a a 3 r 9 r 9 r 3 X + 0 r r r r r r r 9 r r r q P Y E ~ ..:.5.5.5.5.5.5.5.5.5.5.5.5.6.5.4.",
"4.5.6.5.5.5.5.5.5.5.5.5.5.5.5.:.C p a a 4 7 t 9 t r 9 7 + X , w r t r t 9 r r t t 9 7 q a k U ) ,.5.5.5.5.5.5.5.5.5.5.5.5.6.5.4.",
"4.5.6.5.5.5.5.5.5.5.5.5.5.5.5.,.C p a a > 7 t t t t t t : + # : q t t t t 9 t t t t r > t a j W 1.5.5.5.5.5.5.5.5.5.5.5.5.6.5.4.",
"4.5.6.5.5.5.5.5.5.5.5.5.5.5.5.,.C p 9 t > 9 t t t t a 9 9 < * + * < y a t a t t t 9 9 > y t t S 1.5.5.5.5.5.5.5.5.5.5.5.5.6.5.4.",
"3.5.6.5.5.5.5.5.5.5.5.5.5.5.5.,.m p p t > 9 p p p p p p p p 9 0 = $ ; i a t t a t a 9 - t a p C ,.5.5.5.5.5.5.5.5.5.5.5.5.6.5.4.",
"4.5.6.5.5.5.5.5.5.5.5.5.5.5.5.,.S p t t > t a p p a a p p p a p f 0 $ < a a p a a t 9 1 9 p t C :.5.5.5.5.5.5.5.5.5.5.5.5.6.5.4.",
"4.5.6.5.5.5.5.5.5.5.5.5.5.5.5.:.S k f p q 9 a a a a a a a a a a g d = = a a a a a a r q t t t c =.5.5.5.5.5.5.5.5.5.5.5.5.6.5.4.",
"4.5.6.5.5.5.5.5.5.5.5.5.5.5.5.-.S b g b V t a s a s s s a a a s s a - % f a s s s a 9 a t 9 t c -.5.5.5.5.5.5.5.5.5.5.5.5.6.5.4.",
"4.5.6.5.5.5.5.5.5.5.5.5.5.5.5.-.D b b b L 0 a s s s s a 9 p s s s t % : a s s s s a 6 y t r t c -.5.5.5.5.5.5.5.5.5.5.5.5.6.5.4.",
"4.5.6.5.5.5.5.5.5.5.5.5.5.5.5.3.o.v b v b i p a h s h p & & : 6 4 & & i h h h s s 8 w 9 r r u [ 4.5.5.5.5.5.5.5.5.5.5.5.5.6.5.4.",
"4.5.6.5.5.5.5.5.5.5.5.5.5.5.5.5.+.N v d b V w a h s h a < : % $ # % r h h h h h a 7 t r r r x  .5.5.5.5.5.5.5.5.5.5.5.5.5.6.5.4.",
"4.5.6.5.5.5.5.5.5.5.5.5.5.5.5.5.4.o.v d d g g 8 s F h F s g k - % p h h h h h s 7 y t r r u | 4.5.5.5.5.5.5.5.5.5.5.5.5.5.6.5.4.",
"4.5.6.5.5.5.5.5.5.5.5.5.5.5.5.5.5.+.N n d b b d w s F F F G H : & s G F H F h 8 t r r 3 u ' 3.5.5.5.5.5.5.5.5.5.5.5.5.5.5.6.5.4.",
"4.5.6.5.5.5.5.5.5.5.5.5.5.5.5.5.5.4.{ n d d d b b w p h F G G 8 6 F G F h t 7 t r 7 7 7 x *.5.5.5.5.5.5.5.5.5.5.5.5.5.5.5.6.5.4.",
"4.5.6.5.5.5.5.5.5.5.5.5.5.5.5.5.5.5.<.o.m d d d v b d w a s F s h F s a r r y r 3 3 3 u | 4.5.5.5.5.5.5.5.5.5.5.5.5.5.5.5.6.5.4.",
"4.5.6.5.5.5.5.5.5.5.5.5.5.5.5.5.5.5.5.<.| n d d d v f V b w , , > , 8 p y 5 3 3 3 3 u ] >.5.5.5.5.5.5.5.5.5.5.5.5.5.5.5.5.6.5.4.",
"4.5.6.5.5.5.5.5.5.5.5.5.5.5.5.5.5.5.5.5.<.| n i i i d l f q 3 3 6 3 3 3 3 3 2 2 5 x | >.5.5.5.5.5.5.5.5.5.5.5.5.5.5.5.5.5.6.5.4.",
"4.5.6.5.5.5.5.5.5.5.5.5.5.5.5.5.5.5.5.5.5.<.{ M i i i i i e 3 3 1 3 2 2 3 3 2 u ] *.4.5.5.5.5.5.5.5.5.5.5.5.5.5.5.5.5.5.5.6.5.4.",
"4.5.6.5.5.5.5.5.5.5.5.5.5.5.5.5.5.5.5.5.5.5.4.+.} M l l i u 4 2 3 2 2 2 2 5 z } >.5.5.5.5.5.5.5.5.5.5.5.5.5.5.5.5.5.5.5.5.6.5.4.",
"4.5.6.5.5.5.5.5.5.5.5.5.5.5.5.5.5.5.5.5.5.5.5.5.4.+.| M M N M z z z z z z ]  .4.5.5.5.5.5.5.5.5.5.5.5.5.5.5.5.5.5.5.5.5.5.6.5.4.",
"4.5.6.5.5.5.5.5.5.5.5.5.5.5.5.5.5.5.5.5.5.5.5.5.5.5.4.-.+.;.:.,.:.-.-.=.-.4.5.5.5.5.5.5.5.5.5.5.5.5.5.5.5.5.5.5.5.5.5.5.5.6.5.3.",
"4.5.6.5.5.5.5.5.5.5.5.5.5.5.5.5.5.5.5.5.5.5.5.5.5.5.5.5.5.5.5.5.5.5.5.5.5.5.5.5.5.5.5.5.5.5.5.5.5.5.5.5.5.5.5.5.5.5.5.5.5.6.5.4.",
"4.5.6.5.5.5.5.5.5.5.5.5.5.5.5.5.5.5.5.5.5.5.5.5.5.5.5.5.5.5.5.5.5.5.5.5.5.5.5.5.5.5.5.5.5.5.5.5.5.5.5.5.5.5.5.5.5.5.5.5.5.6.5.4.",
"4.5.6.5.5.5.5.5.5.5.5.5.5.5.5.5.5.5.5.5.5.5.5.5.5.5.5.5.5.5.5.5.5.5.5.5.5.5.5.5.5.5.5.5.5.5.5.5.5.5.5.5.5.5.5.5.5.5.5.5.5.6.5.4.",
"4.6.6.5.5.5.5.5.5.5.5.5.5.5.5.5.5.5.5.5.5.5.5.5.5.5.5.5.5.5.5.5.5.5.5.5.5.5.5.5.5.5.5.5.5.5.5.5.5.5.5.5.5.5.5.5.5.5.5.5.5.6.5.4.",
"4.5.6.5.5.5.5.5.5.5.5.5.5.5.5.5.5.5.5.5.5.5.5.5.5.5.5.5.5.5.5.5.5.5.5.5.5.5.5.5.5.5.5.5.5.5.5.5.5.5.5.5.5.5.5.5.5.5.5.5.5.6.5.4.",
"4.5.6.5.5.5.5.5.5.5.5.5.5.5.5.5.5.5.5.5.5.5.5.5.5.5.5.5.5.5.5.5.5.5.5.5.5.5.5.5.5.5.5.5.5.5.5.5.5.5.5.5.5.5.5.5.5.5.5.5.5.6.5.4.",
"4.5.6.5.5.5.5.5.5.5.5.5.5.5.5.5.5.5.5.5.5.5.5.5.5.5.5.5.5.5.5.5.5.5.5.5.5.5.5.5.5.5.5.5.5.5.5.5.5.5.5.5.5.5.5.5.5.5.5.5.5.6.5.4.",
"4.5.6.5.5.5.5.5.5.5.5.5.5.5.5.5.5.5.5.5.5.5.5.5.5.5.5.5.5.5.5.5.5.5.5.5.5.5.5.5.5.5.5.5.5.5.5.5.5.5.5.5.5.5.5.5.5.5.5.5.5.6.5.4.",
"4.5.6.5.5.5.5.5.5.5.5.5.5.5.5.5.5.5.5.5.5.5.5.5.5.5.5.5.5.5.5.5.5.5.5.5.5.5.5.5.5.5.5.5.5.5.5.5.5.5.5.5.5.5.5.5.5.5.5.5.5.6.5.4.",
"4.5.6.5.5.5.5.5.5.5.5.5.5.5.5.5.5.5.5.5.5.5.5.5.5.5.5.5.5.5.5.5.5.5.5.5.5.5.5.5.5.5.5.5.5.5.5.5.5.5.5.5.5.5.5.5.5.5.5.5.5.6.5.4.",
"4.6.6.5.5.5.5.5.5.5.5.5.5.5.5.5.5.5.5.5.5.5.5.5.5.5.5.5.5.5.5.5.5.5.5.5.5.5.5.5.5.5.5.5.5.5.5.5.5.5.5.5.5.5.5.5.5.5.5.5.5.6.5.4.",
"4.5.6.5.5.5.5.5.5.5.5.5.5.5.5.5.5.5.5.5.5.5.5.5.5.5.5.5.5.5.5.5.5.5.5.5.5.5.5.5.5.5.5.5.5.5.5.5.5.5.5.5.5.5.5.5.5.5.5.5.5.6.5.4.",
"4.5.6.6.6.6.6.6.6.6.6.6.6.6.6.6.6.6.6.6.6.6.6.6.6.6.6.6.6.6.6.6.6.6.6.6.6.6.6.6.6.6.6.6.6.6.6.6.6.6.6.6.6.6.6.6.6.6.6.6.6.6.5.4.",
"4.5.5.5.5.5.5.5.5.5.5.5.5.5.5.5.5.5.5.6.5.5.5.5.5.5.5.5.5.5.5.5.5.5.5.5.5.5.5.5.5.5.5.5.5.6.5.5.5.5.5.5.5.5.5.5.5.5.5.5.5.5.5.4.",
"7.4.4.4.4.4.4.4.4.4.4.4.4.4.3.3.4.4.4.4.4.4.4.4.4.4.4.4.4.4.4.4.4.4.4.4.4.4.4.4.4.4.4.4.4.4.4.4.4.4.4.4.4.4.4.4.4.4.4.4.4.4.4.7."
};
