/* XPM */
static char *_4058fd17dd54d56efe66629725fec834n2WTDZu6vRidhgA[] = {
/* columns rows colors chars-per-pixel */
"32 32 4 1 ",
"  c #1A1E1C",
". c #202523",
"X c #242B2B",
"o c #2F3434",
/* pixels */
"XX....XXXX.XXXXXXX....XXXXXXX.XX",
"XX.XX.XXX..XXXXXXX..  XXX.XXX.XX",
"...XX.oXXXXX....XX      .XXXX XX",
"XX.XX.oooXXXX.XXXXX XX X.XXXX   ",
"XX........XXX.XXooo XXXX.XooX  .",
"XX XX..XXXXX..XX... X.XX....   X",
"Xo XXX.XXXXXX.XX..XX.XXXXXX  oXX",
"oo XXXX..X.XX.XX..XXXXXXXX Xoo..",
"..  .XXXXX.XX.....XXXX..XXoooX..",
"XXX..XXXXo.XX...........XX.XXXX.",
"XXX..XXXXo ...XXXXXX. .XX..XXXXX",
"XooXXXXooo  XXXXXXXX  oXX.XX.XX.",
"ooXXX..    oXX.XXXXX  Xoo.XX.XX.",
"..XX..XXX  ooXXX      .X.XXX..X.",
"..XXX.XXX.XXXoX. XXXXXXX.XX..XX.",
".   ..XXX.XXXXX..XXXX..XXX...XX.",
". XXXX.XX...oooX.XXXX......XXX..",
". XXXXX.XXXX.XoX...XXX.   XXXX..",
"XXXXXXXXXXXX.XXXXXXX.     XX.X .",
"XXXXoooXXXXX....XXXX  XXXXX.   .",
"XX......oXXX.XX..XXXXX.XXXX...X.",
".XX..XX.oooX XX....XXXX.XXXXXXXX",
".XX..XX.     XX.XXXXXXXXX..XXXXX",
"..X   ...XXX  ..XXXo.XXXo. XoooX",
".XXXXXXXXXXX  XXXoo..XXXo. XXX..",
".. XXXXXXXX.  XX.....XoooX   ...",
".. oXXXXXXXX XXX....   XXX...XX.",
"...ooX.XX....XXXXXXXX...XX.XX...",
".XXX..XXXX..XXXXXX.XXX.....XX...",
".XXX..XXXX..oXXX..XXXXXXX..XX...",
"XX..  oooX..XooX.XXXXXXXXX...XXX",
"XX..    ........XX...oooX....XXX"
};
