/* XPM */
static char *_6fb322cb7e2425aa83815fe7c8795f9alL7G4L29vMNqRUK[] = {
/* columns rows colors chars-per-pixel */
"64 64 28 1 ",
"  c None",
". c #626373",
"X c #616374",
"o c #686A7B",
"O c #6F7181",
"+ c #737786",
"@ c #747887",
"# c #777989",
"$ c #767A89",
"% c #777B8A",
"& c #787C8A",
"* c #787C8B",
"= c #797D8C",
"- c #7A7E8D",
"; c #7B7F8E",
": c #7C808F",
"> c #7D8190",
", c #7F8392",
"< c #818594",
"1 c #828594",
"2 c #828695",
"3 c #838796",
"4 c #858797",
"5 c #888C9B",
"6 c #9496A6",
"7 c #9698A8",
"8 c #9B9DAD",
"9 c #9C9DAD",
/* pixels */
" 98888888888888888889998888888889998888888889998888888888888889 ",
"95<<<<<<<<<<<<<<<<<<<<<<<<<<<<<<<<<<<<<<<<<<<<<<<<<<<<<<<<<<<<59",
"8<@*****=*==*@@*****==**********====*@@*****==**+%******+%==*@<8",
"8<*<<<<<3333<==<<<<<33<<<<<<<<<<333<<==<<<<<33<<%><<<<<<%>33<*<8",
"8<=3<<<<<3333<<3<<3333<<<<<3<<<<<<<<3<<<<<3333<<<<33<<<<<<33<*<8",
"8<=3<<<<3<333333<<<333<<<<<3<<<<<<<<333<<<<333<<<333<<<<3<33<*<8",
"8<%><<<<<<<<3333<<<33<<<<<3333<3<<3333<<<<<33<<<<<333<<<<<<<<*<8",
"8<@%<333<<<<<<33<<3333<<<<333333<<3333<<<<3333<<<<33333<<<<<<*<8",
"8<*<333<<<<<<<<<<<<<3333<<333<<<<<3333<<<<33<<<<<<<<<<<33333<*<8",
"8<*<33<<<<<<<<<<<<<<33333<33<<<<<<3333<<<3333<<<<<3<<<333333<*<8",
"8<*<333333<<<<33<<<<33<<33333<<<<<<<333<<<3333<<3333<<<<<<33<*<8",
"8<*<33333333<<<33<3333<<33333<<<<<<<333<<<3333<<3333<<<<<<<3<*<8",
"8<+%<<<<33<<<<333333<<<<33<<3333333<<<<<<<<<333<33<<<<33<<333=<8",
"8<%><<<<33<<<<333333<<<<3<<<33333333<<<<<<33333<33<<3333<<333=<8",
"8<*<<<<<33<<<333<<333<3333<<<<333333<<33333333333<<<3333<<3<>%<8",
"8<*<<<<<33<<3333<333333333<<<<33333<<<3333333333<<<<3333<<3<%+<8",
"9<=3<<<<33<<3333<<<<<<<<33<<<<<<<<<333<<<<<<<<<<3333<<<<<<<<<*<8",
"9<=3<<<<3<<<3333<<<<<<<<3333<<<<<<<<33<3<<<<<<<<3333<<<<3<<<<*<8",
"8<=3<<<<33<<<<3333<<<<33333333<<<<<3333333<<<<333333<<3333<<<*<8",
"8<=33<3333<<<<333333<<<33333333<<<<333333333<<<3<33<<<3333<<<*<8",
"8<*<33333333<<<333<<<<33333<33333333<<3333<<<<33<<<<33333333<*<8",
"8<*<333333<3<<<333<<<<33333<33333333<<<333<<<<33<<<<33333333<*<8",
"8<*<33<<<<<<<<<<33<<<33333<<<<3<33<<<<3333<<<33333<<33<<<<3<<*<8",
"8<*<33<<<<<<<<<333<<333333<<<<<<33<<<<3333<<333333<<<<<<<<<<<*<8",
"8<*<<<<<<<<<<<333333<<<<33<<<33333<<<<3333<<333333<<<<<<<<<<<*<8",
"8<*<<<<<<<<<3<333333<<<333<<333333<<<<3333<<<33333<<<<3<<3<<=@<9",
"8<*<3<<3<<3333333333<<33<<<<33333333<<<333<<<<33333<3333333<=%<9",
"8<*<33333333333333<<<<33<<<<<3333333<<3333<<<<33333<33333333<=<9",
"9<=3333333333333<<<<3333<333<<<<<<<333333333<<<33333333<33<3<*<8",
"9<%=<3<33333<333<<<<3333<333<<<<<<<3333333<<<<33333333<<<<<3<*<8",
"9<@=<<<<<<<<<<3333<<<3<<<<3333<<<<<<33<3<<<<<<<<3333<<<<<<<<<*<8",
"8<*<<<<<<<<<<<333<<<<<<<<<3333<<<<<333<<<<<<<<<<33<<<<<<<<<<<*<8",
"8<*<<3<<<<333333333<<<333333333<<<<<<<<<<33<<<<<<<<333<<<<<<%+<8",
"8<*<33<<<<3333<<33<<<<333333333<<<<<<<<<3333<<<<<<<<33<3<<<<>%<8",
"8<*<3333<<33<<<<3333<<<3<<<<333333<<<<33333333<<<<<3333333<<<*<8",
"8<*<3333<<33<<<<3333<<<3<<<<3333333<<<33333333<<<<<333333333<*<8",
"8<*<<<33<<<<<333<<<33333<<3333<<33<<<<3333<<33333333<<3333<<<*<8",
"8<@=<<<<<<<<<<33<<<<3333<<33<3<<33<<<<33333<33333333<<<333<<<*<9",
"8<@=<<<<<<<<3333<<<333<<<333<<<<333<<33333<<<<3333<<<<3333<<3=<9",
"8<*<<<<333<33333<<<333<<3333<<<<33<<<33333<<<<<<33<<<<33<3<<3=<9",
"8<*<333333<<<<<<333333<<<<<333<<3333<<<333<<<33333<<<<3333<<<*<8",
"8<*<333333<<<<<<3<3333<<<<<333<<3333<<<333<<<33333<<<<333<<<<*<8",
"9<*<3<33333333<3<<<<3<<<<<3333<<33<3<<333<<<33333333<<<33<<<<*<8",
"8<*<<<3333333333<<<<33<<<<3333<<33<<<<33<<<<33333333<<3333<<<*<8",
"8<*<<<<33333333333<<<<<<<3333<<<3<<<33333333<<<<<<<333333333<*<8",
"8<*<<<<<333333<333<<<<<<<<3333<<<<<<3333<333<<<<<<<3333333<<=@<8",
"8<*<<<<333<<<<<<3333<<<<333333333<<<<<<<<<3333<<<<<<33<3<<<<=@<8",
"8<*<<<<333<<<<<<333333<3333333333<<<<<<<<<333<<<<<<333<<<<<<<*<8",
"8<+%<<<<3333<<3333<<<<<<3333<<3333<<<<<<3333<<3333<<<<<<<<<<<*<8",
"8<%><<<<3333<<3<33<<<<<<3333<<3<33<<<<<<3333<<3<33<<<<<<<<<<<*<9",
"8<*<<<<<333<<<<<333<3333333<<<<<333333<3333<<<<<333<33333<333=<9",
"8<*<<<<<333<<<<<33333333333<<<<<33333333333<<<<<3333333333333=<9",
"8<*<3333<<<<33<<33333333<<<<33<<33333333<<<<33<<333333333333<*<8",
"8<*<3333<<<<34<<333333<<<<<<333<333333<3<<<<333<333333<<3<<3<*<8",
"9<*<<<33<<3333<<33<3<<<<<<3333<<33<<<<<<<<3333<<33<3<<<<<<<<<*<8",
"8<*<<333<33333<<33<<<<<<<43333<<33<<<<<<<43333<<33<<<<<<<<<<<*<8",
"8<*<<<<<<<<<<<<<3<<<<<<<<<<<<<<<3<<<<<<<<<<<<<<<3<<<<<<<<<<<<*<8",
"8<*<<<<<<<3<<::<<<<<<<<<<<3<<<<<3::<<<<<=>3<<<<<<<<<<<<<=>3<<*<8",
"8<%>>>>>>>>>>%%>>>>>>>>>>>>>>>>>>%%>>>>=@=>>>>>>>>>>>>>=@=>>>%<8",
"6<%%%%%%****%%%%*%%%%%%%****%%%%%%%%%%%%****%%%%*%%%%%%%****%%<6",
"o47777777777777777777777777777777777777777777777777777777777774o",
"XO%%%%%%##%%%%%%##%%%%%%##%%%%%%%%%%%%%%%#%%%%%%##%%%%%%%#%%%%OX",
".XXXXXXXXXXXXXXXXXXXXXXXXXXXXXXXXXXXXXXXXXXXXXXXXXXXXXXXXXXXXXX.",
" .XXXXXXXXXXXXXXXXXXXXXXXXXXXXXXXXXXXXXXXXXXXXXXXXXXXXXXXXXXXX. "
};
