/* XPM */
static char *_0718459086c4492c62cbfb5006799206EKssFLrvFwjC6jT[] = {
/* columns rows colors chars-per-pixel */
"64 64 34 1 ",
"  c None",
". c black",
"X c #010001",
"o c #010101",
"O c #010003",
"+ c #0A0807",
"@ c #030508",
"# c gray12",
"$ c #1F201F",
"% c #2D2C2D",
"& c #2D2D2D",
"* c #483D33",
"= c #584A3E",
"- c #1F214E",
"; c #5A354F",
": c #5A364F",
"> c #907A65",
", c #97806A",
"< c #99826B",
"1 c #9C846E",
"2 c #A18871",
"3 c #3C4098",
"4 c #3F449F",
"5 c #40459F",
"6 c #4045A0",
"7 c #4047A0",
"8 c #5358D1",
"9 c #5A60E1",
"0 c #5C62E6",
"q c #BDA085",
"w c #D0B093",
"e c #D9B899",
"r c #DAB89A",
"t c #DAB99A",
/* pixels */
"                                                                ",
"                                                                ",
"                                                                ",
"                                                                ",
"                                                                ",
"                                                                ",
"                                                                ",
"                                                                ",
"                                                                ",
"                                                                ",
"                                                                ",
"                                                                ",
"                                                                ",
"                                                                ",
"                                                                ",
"                                                                ",
"                                                                ",
"                                                                ",
"                                                                ",
"                                                                ",
"                                                                ",
"                                                                ",
"                                                                ",
"                                                                ",
"                                                                ",
"                                                                ",
"                                                                ",
"                                                                ",
"                                                                ",
"                                                                ",
"                                                                ",
"                                                                ",
"                                ..  .                           ",
"                             ........                           ",
"                           ....5..60.                           ",
"                         ....6004680...                         ",
"                        ...600000000.-.                         ",
"                       ....6940000000...                        ",
"                       ..666640.000000..                        ",
"                       ..663......@.0.                          ",
"                       ..6.............                         ",
"                        ...+.t.&&......                         ",
"                        ...ttt#&&..&&..                         ",
"                        .<.ttt$&&..$&..                         ",
"                        .<.<tt.$&.t..q.                         ",
"                        .<<<<t1..tttt2.                         ",
"                        ..<<<<ttttttt.                          ",
"                         .,<<<<wt*tt..                          ",
"                          .><<<<<<t..                           ",
"                           ..=<<,...                            ",
"                         ... ..... ...                          ",
"                         .... .::. ....                         ",
"                         .... .::. ....                         ",
"                          ..  ...   ..                          ",
"                             ..  .                              ",
"                             ... ..                             ",
"                                                                ",
"                                                                ",
"                                                                ",
"                                                                ",
"                                                                ",
"                                                                ",
"                                                                ",
"                                                                "
};
