/* XPM */
static char *eb7b20ca24c04840cdf2997eadc64f76KG3D5PVfeFuBosmt[] = {
/* columns rows colors chars-per-pixel */
"64 64 165 2 ",
"   c #000103",
".  c #01040C",
"X  c #010614",
"o  c #030917",
"O  c #0D0E17",
"+  c #010719",
"@  c #02091C",
"#  c #080D1B",
"$  c #0D111C",
"%  c #141415",
"&  c #020C23",
"*  c #020F2A",
"=  c #031124",
"-  c #0C1223",
";  c #03112E",
":  c #0A132C",
">  c #121624",
",  c #171A24",
"<  c #111728",
"1  c #131929",
"2  c #1A1D2A",
"3  c #031334",
"4  c #091633",
"5  c #051836",
"6  c #0E1934",
"7  c #03163A",
"8  c #081739",
"9  c #04183E",
"0  c #0C1C3D",
"q  c #111C33",
"w  c #131F3A",
"e  c #07203D",
"r  c #1A2236",
"t  c #1A243A",
"y  c #1F283D",
"u  c #242938",
"i  c #031741",
"p  c #041B44",
"a  c #0A1E42",
"s  c #041E4A",
"d  c #081F49",
"f  c #041F50",
"g  c #052042",
"h  c #0E2244",
"j  c #0B2943",
"k  c #04214E",
"l  c #0B234C",
"z  c #0E2849",
"x  c #132443",
"c  c #172946",
"v  c #11264B",
"b  c #14284C",
"n  c #1D2E4C",
"m  c #042353",
"M  c #0D2652",
"N  c #072954",
"B  c #092B55",
"V  c #04265A",
"C  c #04295E",
"Z  c #0B2B5B",
"A  c #132A53",
"S  c #1A2E53",
"D  c #112D5A",
"F  c #08315F",
"G  c #173455",
"H  c #14315A",
"J  c #1C355E",
"K  c #24314B",
"L  c #2C354B",
"P  c #2E384E",
"I  c #213254",
"U  c #213559",
"Y  c #243A5D",
"T  c #012762",
"R  c #042B63",
"E  c #062C63",
"W  c #042B64",
"Q  c #052D67",
"!  c #042E67",
"~  c #0B2E63",
"^  c #042E69",
"/  c #052F6A",
"(  c #073267",
")  c #0B3065",
"_  c #073867",
"`  c #05316B",
"'  c #04316D",
"]  c #04316E",
"[  c #08336A",
"{  c #153766",
"}  c #193663",
"|  c #1B3967",
" . c #10356C",
".. c #1C3C6C",
"X. c #043270",
"o. c #043473",
"O. c #043574",
"+. c #0C3671",
"@. c #0B3A75",
"#. c #043778",
"$. c #043878",
"%. c #04397B",
"&. c #043A7C",
"*. c #043C7F",
"=. c #0A3C7A",
"-. c #123B73",
";. c #103F7C",
":. c #233B62",
">. c #223E6A",
",. c #0E407F",
"<. c #124271",
"1. c #1A4177",
"2. c #14437D",
"3. c #1C4378",
"4. c #2A4066",
"5. c #334F67",
"6. c #214679",
"7. c #24467B",
"8. c #36537C",
"9. c #414A60",
"0. c #48667E",
"q. c #5C707F",
"w. c #043D81",
"e. c #043E82",
"r. c #043E83",
"t. c #044086",
"y. c #0A4384",
"u. c #0B4887",
"i. c #03438B",
"p. c #03448C",
"a. c #03468F",
"s. c #0B4589",
"d. c #05488F",
"f. c #09498C",
"g. c #134581",
"h. c #1A4881",
"j. c #034791",
"k. c #034993",
"l. c #024B97",
"z. c #0B4C92",
"x. c #024D99",
"c. c #044D99",
"v. c #07509B",
"b. c #03509E",
"n. c #2C4F80",
"m. c #215C9C",
"M. c #2D5B98",
"N. c #0251A0",
"B. c #0455A3",
"V. c #025CAF",
"C. c #0362B6",
"Z. c #0768BB",
"A. c #086CBE",
"S. c #2B62A5",
"D. c #4A688D",
"F. c #70788E",
"G. c #979DA3",
"H. c #949EAC",
"J. c #90A2B4",
"K. c #A3AEB5",
"L. c #A3B5C7",
"P. c #A5B8C9",
"I. c #C1CBD4",
"U. c #CCD3DA",
"Y. c #D0DDE9",
/* pixels */
"p s V k k m m s s s s s s p 7 ; & * * ; * * @ @ X X . X X . @ : i s s R ` R ] Q V s p 7 p 3 3 ; 3 7 7 7 p m V m m V V V V V V k ",
"p 8.R m m C R V m V V m V m p ; ; * * ; ; * * & & @ > X X @ & * 3 7 p Z ] w.^ ] V V m p i p p p g ; 3 3 s m V V V V m V V m s 9 ",
"s C C m V Q R C m V C C V R 7 ; * 6 * * * * * * * P @ X @ & & * * 7 s k X.w.*.%.#.| s s s s m p 9 ; ; 3 p k C V V V V m B s 7 9 ",
"V R C m V C C s k V C V V R p 3 * & & : & & & * * * * & & * * ; ; p k m O.i.N.w.&.] V k k k k s 7 3 x 5 i s V V V V V m k i 7 p ",
"R C V m V C V p m V 7.V R R s i 3 : * * * & & & 6 q & & * * 3 3 p V m C w.p.x.b.i.&.O.^ C m m s i 7 x h p V V V V V V m m p p V ",
"R V k V ~ V V s m C V V R V s 7 3 3 ; * ; * & & & * * * * 3 7 p p V m ^ 2.w.i.N.k.i.t.&.^ ^ ] V m p k m m V R V m m V m l m R R ",
"V V m V V | m s s m V V E V p 3 ; * * 3 ; & & * ; ; ; ; ; ; 7 p m Q V ^ M.o.p.B.N.b.i.p.&.%.&.#.%.Q V V C R Q V m Z m V R Q R C ",
"V Z V V V m m k s s m m V V 7 3 ; 3 ; ; 3 * ; * ; 7 7 3 7 3 9 s C C V m V Q k.V.Z.A.x.N.x.b.j.t.%.^ R ` ` Q R V k s m R Q W T C ",
"V C R R C m s s V s k V V C s 7 3 3 ; ; 3 7 3 7 7 i l p s p s m Q V s s C o.x.C.C.B.k.c.v.p.i.w.w.*.%.z.y.^ ] R R V ) ^ ^ R ` V ",
"C >.R C V m m m V V p V V k p 7 7 3 ; 3 9 7 h p p p p s :.m m C W V s m ^ &.p.k.N.k.p.p.x.j.p.p.t.*.%.%.O.O.X. .Q Q ^ ` ^ Q ] ^ ",
"V V R V m s m V V V s m m s p p 7 3 ; 7 9 i i s s s s k m V Q ^ ] ^ V ^ O.%.w.w.t.t.*.i.p.x.p.t.w.w.%.O.o.&.%.O.%.%.%.X.] +.] ^ ",
"V V R m k s m V N k s m m s s p 7 3 3 7 A p s m C V C Q o.X.X.o.%.X.^ ^ O.O.O.@.o.#.w.w.i.x.k.k.i.t.w.w.O.%.%.%.&.*.&.%.o.] ^ Q ",
"R Q C M s s s M s s s k s s p p 7 3 ; 7 s m V ` o.o.] O.O.O.&.o.@.^ -.C R R Q ^ T W #.w.t.p.m.k.p.s.w.w.s.*.%.&.w.w.w.&.%.X.] Q ",
"^ C s 7 7 k B p i 9 i s 7 7 p p 9 7 3 k C R Q p.f.&.&.%.#.%.] R C R C s V V m m s m ^ %.p.d.B.c.j.k.w.w.w.w.S.w.t.t.w.w.%.^ ^ R ",
"C m p 7 3 k B i 9 p S 9 7 7 9 i i 7 7 m Q ^ Q O.&.&.&.#.O.#.T V m k m V C V p l s V C -.w.p.c.k.p.k.k.&.w.t.t.t.p.t.p.i.o.C Q ^ ",
"m s 7 3 7 9 i i 9 9 9 7 7 7 7 7 p z 7 s W ^ ^ ^ o.#.&.#.%.o.R m p 9 } V C V p s i m Q ^ X.O.w.t.p.p.k.j.k.i.t.s.w.&.&.%.o.^ Q C ",
"9 7 ; 3 9 7 7 7 7 7 7 7 s i * 3 7 0.p p R ^ ] ^ ] O.&.X.%.X.R s 9 7 p p V L.k p s V Q C V Q *.t.i.p.k.p.p.i.p.&.O.#.#.O.] n.R s ",
"0 ; 3 3 7 7 7 7 7 7 v 9 s i 7 9 i p p A C ^ o.%.%.%.=.o.&.X.C 0 4 ; 3 p p p 7 7 p ) [ 7 s k ^ &.w.t.j.j.k.t.s.#.O.X.X.] ^ W m 7 ",
"& 3 & 3 ; 7 3 3 3 7 7 p p p i p :.p C +.R ^ ] =.&.%.^ O.&.] V 5 p 7 3 7 p p 7 7 7 p p 3 ; c s ^ ] &.w.p.p.w.%.o.^ W R Q C V p ; ",
"; * & & & * ; * 3 3 7 p p p p s s k V ( R o.X.^ %.o.^ #.w.] C p l 7 7 7 9 p 7 3 I 7 p 7 ; * ; s m ^ %.t.t.%.O.^ Q R C | m 7 3 * ",
"& @ @ - @ @ r w 3 3 7 7 p i s m V V C Q -.] %.O.o.X.^ ` o.R -.m p 9 7 7 7 7 i i i 9 7 7 3 ; * h k C ] =.@.^ ^ W R C m s 9 3 & & ",
"@ @ @ X X + @ & * 3 7 7 a i p D.V m C ^ ] ] ] %.O.Q C R R m -.V D p p 9 3 ; 7 7 3 5 3 ; ; 3 * & p s V V m s s V C V s p ; & & @ ",
"X X X @ X X X @ & * 3 7 7 7 h 9 9 m V R ^ ] X.&.^ ( R C C V k s m m m p 7 3 ; 4 3 ; ; 3 ; 4 3 * 3 p s m k M m m m s s p * & @ @ ",
"@ @ @ @ @ X X @ & & & * 3 7 7 3 7 7 p m R ] ^ ] ] ] Q C Q ] C Z F m m s p 3 & * * ; ; & & ; 3 & & 7 s s s k k s s p p 3 6 & # @ ",
"= @ @ @ @ @ @ @ - & & & & * ; 3 7 7 7 p m R ^ Q 3.X.o.o.] O.R Z <._ k s 7 * @ @ @ & & & & 0 * & & H.7 9 p s s i p p 7 * & & @ K.",
"@ @ @ @ @ @ @ @ @ @ @ @ & & * ; 3 3 7 7 7 k R R ] %.] ` ] O.V m p k p i 7 & @ @ @ @ & & & * ; @ @ * & 3 9 p s N p 7 ; & * @ @ = ",
"@ & @ @ @ @ X @ @ @ & @ @ & & 3 ; ; 3 7 s m Q m ` Y.] ~ Q X.W m p 3 K 7 c * @ & @ @ & * 3 ; & X # @ & 7 p 9 p H p 7 7 7 x @ @ & ",
"& & @ @ & @ 1 X $ @ @ - @ & & ; ; 3 7 9 V ] X.V Z @.V m V Q C m V 7 7 7 3 ; & & & & & ; U.x & @ + = 5.9 7 7 7 i 9 i p 7 7 ; @ & ",
"* & & & & & @ @ @ @ @ @ @ * 3 * * 3 p V Q #.%.X.^ T C m V T Q m P.k 3 7 3 3 q & & @ y & 3 * @ @ @ & e 7 ; 3 3 3 7 7 9 9 7 7 @ ; ",
"* * * ; ; * & & @ @ @ @ & 3 9 9 7 p V V ] %.&.#.^ ^ R V V R R V k H 7 i 7 ; * & & ; 3 ; & * & @ @ & * 7 ; & & * 3 7 i i 7 3 @ & ",
"& @ & * ; * & L & & @ & ; 7 9 s m m V C ] %.t.&.Q ^ R R Q R Q Q k i p k p 3 ; & ; 3 3 3 * 3 * & & & * 3 * & @ & * 7 i 7 3 * X X ",
"X # @ & & @ @ * ; * & & 7 9 p V m m V Q =.&.w.%.Q ^ V R R R R Q m p 9 i 7 7 ; 3 7 7 3 7 3 ; 3 ; n 7 3 ; * & @ & ; 7 7 7 * @ X X ",
"- 9.& : & & @ & 3 3 ; 3 9 9 m V V V V ] &.&.&.O.Q Q C C R @.` ^ k i 3 3 7 7 5 7 7 7 7 0 3 ; ; 5 Y p p 3 * & @ & ; 3 4 7 * X . o ",
"o & * & & ; 3 3 3 5 7 7 s m V Q ] Q ^ %.&.w.%.X.Q Q R R Q y.] R m i 9 7 7 7 7 7 7 3 7 3 3 ; * 5 p p 9 * * & @ @ & & * * & @ . X ",
"+ & ; ; 5 J.p 7 7 p p s s V X.%.&.%.&.w.&.w.#.] ^ R Q Q 1.^ Q C k s v 9 7 7 7 7 7 3 3 3 3 * 4 7 s s 7 & & & @ & @ & & & @ + X > ",
"X @ * 7 i k k s V s p s C O.&.%.X.] O.%.&.%.O.O.] ] w.&.o.Q R C V >.p 9 7 p 7 3 3 3 ; 4 * ; 7 p k Y * & & @ + @ X X @ & 1 X X X ",
"X @ ; i s s m Z Q C V C Q O.w.O.] Q ] o.%.%.;.X.O.%.w.w.] C C R V m s 7 7 p p 7 3 ; * * 3 7 p s s 7 & @ @ @ o - X X X @ X X + @ ",
"+ & 3 s C V R R Q T Q ` ` %.g.^ ^ Q ^ Q Q ^ ^ ] o.&.p.y.R C C C V k k p p p Z B ; 3 ; 3 7 p s k i 9 * @ & @ # o X X . . . X @ + ",
"& 9 m R Q Q 3.+.X.o.O.g.] O.w.^ Q Q ^ R Q R R R @.X.t.O.=.[ m s s s s M s s k p 7 7 3 7 s s k s i 9 3 & & @ @ @ X . . . X X X @ ",
"3 i m Q ^ C ) X.#.O.O.X.Q %.&.#.] Q R R R R R T Q O.&.^ [ { s s s s s s p b a 0 7 p p p i p p p p i 7 * & & & @ X .   . @ @ & & ",
"7 s V Q Q R R ^ O.%.X.X.R Q &.w.O.Q R R R C 6.o.o.o.^ C >.s k p 7 7 7 7 3 & ; 3 3 9 9 9 i p S p k s p ; * ; t @ X       X & & * ",
"p k V Q ^ Q W o.O.%.&.*.] X.w.i.#.] C R R Q o.%.o.^ V V k p p 9 5 p l 3 * * ; 3 7 7 9 i s s p k s s 7 3 * & @ . .       . @ & * ",
"p p V ` ^ ^ Q h.%.%.&.w.w.t.k.w.O.R R R ^ %.w.%.R C C V p 9 7 5 I.9 7 ; ; * * 5 7 p 9 i s s k p 9 7 3 * @ X           . X @ & * ",
"i p V V Q ^ X.%.o.o.%.&.&.i.p.w.] Q Q X.w.w.&.u.] V >.s 9 8 7 p m s i 7 3 3 3 7 3 s 7 7 p p v p 7 ; * & @           . . + @ @ * ",
"7 9 J s R Q Q ] ^ Q ] X.&.w.p.p.&.&.%.w.w.w.&.` R V m m p p s s J V m 7 3 3 3 7 s p 9 7 7 7 7 7 3 * @ @ X               X @ - & ",
"* 3 p p s m V C T Q ` O.O.o.p.x.j.j.k.j.p.&.O.R C C C m m s s s C R m i i p 7 m k i g 7 3 7 7 3 * & @ X .                 . @ * ",
"* ; 7 p p i p k C Q ] ,.O.o.i.p.j.p.w.w.p.&.O.^ R R R m s s m m T V V k m V C C k 7 9 7 7 7 * * & @ X .         %   . .   . @ * ",
"* * 7 s k k s m V R Q ^ ^ X.%.&.&.*.%.O.O.^ ^ Q ^ V R m k V V R R C m m V m V s p 7 p 3 * * & & @ @ . .           . . . X < @ * ",
"* * ; l M k s p m C ..R R V ^ ` -.X.X.] ] Q Q Q C C R V s V R Q Q C V C V k V m s p 7 ; * 7 ; t X . . .           # X X X @ & & ",
"q * ; i s s p p p k m k p s | V R ^ ^ ] ] Q V V m s m m m C ] ^ -.] ] ] C s V V m s s 5 7 G 3 @ . . . G.. .     . = = @ + @ @ & ",
"& ; 7 i m k s d p s s p p s s s s m V V Z V m 9 7 i s m V Q ] ^ ] ` ] ` V m m V C V l p 7 6 & @ X . . X . . .   . @ & @ @ @ @ & ",
"* 3 v p m m A s p N Z l p p s m k s s i 7 9 7 v 3 7 i p C ^ ] ] Q Q T V V m m k V Z s p i 7 3 @ X X X X . . . . . @ @ @ @ @ @ & ",
"* 3 9 s m m k k s s s p Y s s p p p p 7 9 B 7 7 7 n p k Q ` ] ^ C V V V V V m s V V m p p 7 7 ; & X + X X O X . + & & @ & F.& : ",
"* 3 3 p s s s s l p p s s i 7 7 7 9 3 * 5 j 3 7 0 9 p V X.] R V V m k m V V V s V C V p 9 7 5 5 & @ X X $ . X . @ ; ; & & @ q & ",
"7 3 ; 9 s s s s p I 9 7 7 7 3 3 3 7 0 * * * * * 7 7 s m C E k s s p p s m m V k V C V p p p 9 p @ @ @ @ X . . + & ; 3 * & @ & * ",
"7 7 7 p m m m m k i 7 7 3 7 7 7 3 3 3 * & & & w ; 7 i s s V N 9 p s s p s V V k f R V p i p 9 5 * & X @ 2 X . & ; 7 7 3 @ @ & 3 ",
"7 7 7 9 s p b 7 7 p p p i p 7 7 7 ; & & & r & & & 0 p p p k N 7 s s s p s V m m V [ Z p i p 7 ; & @ @ q.= X @ ; 7 7 7 7 * & * 7 ",
"i p p s 7 7 7 3 3 7 i p i i 7 7 7 ; & @ @ @ @ u @ : 7 3 0 7 i p s s M p s k m s m R C p p 9 0 * @ X @ j : @ ; i p 9 7 7 * & * 7 ",
"7 S i i 7 9 7 8 7 7 s s s p 9 7 ; * & & X X X @ & & & 3 3 7 i s s s m s s s s s k V V p 7 9 8 & @ @ & & @ & 7 i p i 7 7 3 ; & 7 ",
"7 7 9 p p 7 3 7 7 7 s s m m k 9 3 * & * @ . X & & & & * * 7 7 i p s s m m s s p m V V S 7 7 3 ; 3 * q @ * 3 9 p p i p 4.0 5 3 7 ",
"7 7 h s p 7 7 7 9 p 7 p s s m k 7 3 @ @ + . o @ : @ @ : c 3 3 i p s s k k k s M m V Z p 7 3 ; ; 3 3 ; ; ; 7 p p s i p 7 i i i 9 ",
"U m V m p 7 7 7 i p 9 9 p p p 9 3 * @ @ X . X @ X @ @ : 9 * * 3 i p p s s s m V C R m p 9 7 * * 3 3 7 7 7 7 p s s l s s p i 7 7 ",
"s m V m s i p p i p p 9 9 9 7 5 * * & @ X X X X @ X X X @ @ & 7 p p s m V V V Q R V p p 7 7 * q ; 3 3 9 9 p s k m s s s p p p s ",
"s p k A i s p s s p p p p 9 7 * & ; K * @ @ X . X X , . X X @ 4 p C R R R C ] ^ R l 9 9 7 7 ; * 3 7 i p p s V m m m m A s k k V "
};
