/* XPM */
static char *result[] = {
/* columns rows colors chars-per-pixel */
"64 64 204 2 ",
"   c gray20",
".  c #694C39",
"X  c #484848",
"o  c #515151",
"O  c #5D5251",
"+  c #725540",
"@  c #7B5E48",
"#  c #776055",
"$  c gray40",
"%  c #736B6B",
"&  c #777777",
"*  c #803B34",
"=  c #CD4335",
"-  c #CE4335",
";  c #D14436",
":  c #D34536",
">  c #D64637",
",  c #DA4738",
"<  c #DD4839",
"1  c #DE4939",
"2  c #DB543F",
"3  c #E34A3B",
"4  c #E74C3C",
"5  c #85674F",
"6  c #8E7157",
"7  c #CF5C42",
"8  c #CD5A52",
"9  c #EA5E4A",
"0  c #C46445",
"q  c #EB6751",
"w  c #ED7159",
"e  c #EE7A60",
"r  c #28B162",
"t  c #29B664",
"y  c #29B765",
"u  c #2ABB67",
"i  c #2BBE69",
"p  c #34B266",
"a  c #35B56B",
"s  c #739C5D",
"d  c #4BB36F",
"f  c #50B467",
"g  c #4FB471",
"h  c #4EB673",
"j  c #42BA75",
"k  c #50BF7F",
"l  c #67A460",
"z  c #63B87D",
"x  c #39C46D",
"c  c #2ECC71",
"v  c #48CE79",
"b  c #4FCD7B",
"n  c #52CD7D",
"m  c #8A8C56",
"M  c #A38557",
"N  c #A18366",
"B  c #A68B6B",
"V  c #AA8C6D",
"C  c #B49675",
"Z  c #B49976",
"A  c #BD9F7C",
"S  c #90B173",
"D  c #F18C6F",
"F  c #F49F7D",
"G  c #76BD8A",
"H  c #5ED085",
"J  c #65CE87",
"K  c #62D181",
"L  c #6FD285",
"P  c #78CE9C",
"I  c #868686",
"U  c gray62",
"Y  c #A2A2A2",
"T  c #A7A7A7",
"R  c gray68",
"E  c #B2B2B2",
"W  c #B6B6B6",
"Q  c #D69693",
"!  c #C6A884",
"~  c #D0B18B",
"^  c #D7B692",
"/  c #D7BD93",
"(  c #D9BB93",
")  c #D5BF98",
"_  c #D4BF9D",
"`  c #F6A885",
"'  c #DDB3B2",
"]  c #84C095",
"[  c #86C196",
"{  c #98C596",
"}  c #90C59F",
"|  c #92C7A1",
" . c #98C7A5",
".. c #9DD7AD",
"X. c #A0CAAB",
"o. c #A4D2AD",
"O. c #ABCFB4",
"+. c #A3D9B2",
"@. c #A8DAB6",
"#. c #B1DBB2",
"$. c #B3D2BA",
"%. c #B5D3BC",
"&. c #B8D4BF",
"*. c #D6C09B",
"=. c #E1C59A",
"-. c #E2C49A",
";. c #E6CA9E",
":. c #EECC9E",
">. c #FAC49B",
",. c #DBC8AE",
"<. c #DCC9B1",
"1. c #DCCAB2",
"2. c #DCCBB4",
"3. c #DDCCB5",
"4. c #DECEB9",
"5. c #E8CCA0",
"6. c #ECCDA2",
"7. c #FCCDA2",
"8. c #E4DDA9",
"9. c #F0D2A5",
"0. c #F2D5A7",
"q. c #F5D6A9",
"w. c #F5D7A9",
"e. c #FDD6A9",
"r. c #F1DEAD",
"t. c #FADBAD",
"y. c #FCDDAF",
"u. c #FCDFB3",
"i. c #FADFB8",
"p. c #FFE0B1",
"a. c #FEE1B6",
"s. c #FDE1B8",
"d. c #F9E1BC",
"f. c #BDD6C3",
"g. c #BCD7C3",
"h. c #AEE1C4",
"j. c #BBE6CD",
"k. c #C3C3C3",
"l. c gray77",
"z. c #C6C6C6",
"x. c #CBCBCB",
"c. c #C3D9C8",
"v. c #C5DACA",
"b. c #C7DBCC",
"n. c #C8DBCD",
"m. c #CBDED0",
"M. c #D5D5D5",
"N. c #D7D7D7",
"B. c gray86",
"V. c gainsboro",
"C. c #E3D9CC",
"Z. c #E6DFD5",
"A. c #CDE3D3",
"S. c #C9EBD7",
"D. c #D1E0D5",
"F. c #D4E1D7",
"G. c #D5E1D8",
"H. c #D7E2D9",
"J. c #D5E6D8",
"K. c #D5E6D9",
"L. c #D7E6DB",
"P. c #D8E3DB",
"I. c #DEE6DF",
"U. c #F8E3C5",
"Y. c #F5E6D1",
"T. c #F2E9DC",
"R. c #DEE6E0",
"E. c #DFE7E1",
"W. c #DEE9E0",
"Q. c #D6F0E1",
"!. c gray88",
"~. c gray89",
"^. c #E1E7E2",
"/. c #E9E5E0",
"(. c #E9E5E1",
"). c #E2E8E3",
"_. c #E2E8E4",
"`. c #E2EAE4",
"'. c #E5E9E6",
"]. c #EFEAE3",
"[. c #E7EAE8",
"{. c gray91",
"}. c #E8EBE9",
"|. c #ECEAE8",
" X c #ECEBEA",
".X c #E9ECEA",
"XX c #EAECEA",
"oX c #EFECE9",
"OX c #EEEDEA",
"+X c #EDECEC",
"@X c #ECEDED",
"#X c #EEEDED",
"$X c #EEEEEE",
"%X c #EFEFEF",
"&X c #F1EAE0",
"*X c #F1EBE2",
"=X c #F0EBE3",
"-X c #F0ECE6",
";X c #E4F5EB",
":X c #F1FAF5",
">X c #F9F9F9",
",X c #FDFDFD",
"<X c white",
"1X c None",
/* pixels */
"1XM.M.M.M.M.M.M.M.M.M.M.M.M.M.M.M.M.M.M.M.M.M.M.M.M.M.M.M.M.M.M.M.M.M.M.M.M.M.M.M.M.M.M.M.M.M.M.M.M.M.M.M.M.M.M.M.M.M.M.M.M.M.1X",
"M.{.%X%X%X%X%X%X%X%X%X%X%X%X%X%X%X%X%X%X%X%X%X%X%X%X%X%X%X%X%X%X%X%X%X%X%X%X%X%X%X%X%X%X%X%X%X%X%X%X%X%X%X%X%X%X%X%X%X%X%X%X{.M.",
"M.%X,X>X>X>X>X>X>X>X>X>X>X>X>X>X>X>X>X>X>X>X>X>X>X>X>X>X>X>X>X>X>X>X>X>X>X>X>X>X>X>X>X>X>X>X>X>X>X>X>X>X>X>X>X>X>X>X>X>X>X,X%XM.",
"M.%X>X$X$X$X$X$X$X$X$X$X$X$X$X$X$X$X$X$X$X$X$X$X$X$X$X$X$X$X$X$X$X$X$X$X$X$X$X$X$X$X$X$X$X$X$X$X$X$X$X$X$X$X$X$X$X$X$X$X$X>X%XM.",
"M.%X>X$X$X$X$X$X$X$X$X$X$X$X$X$X$X$X$X$X$X$X$X$X$X$X$X$X$X$X$X$X$X$X$X$X$X$X$X$X$X$X$X$X$X$X$X$X$X$X$X$X$X$X$X$X$X$X$X$X$X>X%XM.",
"M.%X>X$X$X$X$X$X$X$X$X$X$X$X$X$X$X$X$X$X$X$X$X$X$X$X$X$X$X$X$X$X$X$X$X$X$X$X$X$X$X$X$X$X$X$X$X$X$X$X$X$X$X$X$X$X$X$X$X$X$X>X%XM.",
"M.%X>X$X$X$X$X$X$X$X$X$X$X$X$X$X$X$X$X$X$X$X$X$X$X$X$X$X$X$X$X$X$X$X$X$X$X$X$X$X$X$X$X$X$X$X$X$X$X$X$X$X$X$X$X$X$X$X$X$X$X>X%XM.",
"M.%X>X$X$X$X$X$X$X$X$X$X$X$X$X$X$X$X$X}._.R.).[.XX$X$X$XG.b.v.$.X.[ ] ]  .&.f.n.P.P.F.R.'.$X$X$X$X$X$X$X$X$X$X$X$X$X$X$X$X>X%XM.",
"M.%X>X$X$X$X$X$X$X$X$X$X$X$X$X$X.Xc.} z r r r r r r r r r r r r r r r r r r r r r r r r d ] %..X$X$X$X$X$X$X$X$X$X$X$X$X$X>X%XM.",
"M.%X>X$X$X$X$X$X$X$X$X$X$X$X$XI.g r r r r r r r r r r r r r r r r r r r r r r r r r r r r r r d c.$X$X$X$X$X$X$X$X$X$X$X$X>X%XM.",
"M.%X>X$X$X$X$X$X$X$X$X$X$X$XH.p r r r r r r r r r r r r r r r r r r r r r r r r r r r r r r r r r R.$X$X$X$X$X$X$X$X$X$X$X>X%XM.",
"M.%X>X$X$X$X$X$X$X$X$X$X$X$XO.r r r r r r r r r r r r r r r r r r r r r r r r r r r r r r r r r r G $X$X$X$X$X$X$X$X$X$X$X>X%XM.",
"M.%X>X$X$X$X$X$X$X$X$X$X$X$Xm.r r r r r r r r r r r r r r r r r r r r r r r r r r r r r r r r r r r $X$X$X$X$X$X$X$X$X$X$X>X%XM.",
"M.%X>X$X$X$X$X$X$X$X$X$X$X$X^.r r r r r r r r r r r r a P j.S.S.S.S.j.P r r r r r r r r r r r r r r $X$X$X$X$X$X$X$X$X$X$X>X%XM.",
"M.%X>X$X$X$X$X$X$X$X$X$X$X$XE.r r r r r r r r r r r P ;X<X<X<X<X<X<X<X<XQ.k r r r r r r r r r r r r $X$X$X$X$X$X$X$X$X$X$X>X%XM.",
"M.%X>X$X$X$X$X$X$X$X$X$X$X$XD.r r r r r r r r r r k :X<X<X<X<X<X<X<X<X<X<X;Xk r r r r r r r r r r r $X$X$X$X$X$X$X$X$X$X$X>X%XM.",
"M.%X>X$X$X$X$X$X$X$X$X$X$X$Xg.r r r r r r r r r j :X<X<X<X<X<X<X<X<X<X<X<X<XQ.a r r r r r r r r r r $X$X$X$X$X$X$X$X$X$X$X>X%XM.",
"M.%X>X$X$X$X$X$X$X$X$X$X$X$X| r r r r r r r r r h.<X<X<X<X<X<X<X<X<X<X<X<X<X<Xh.r r r r r r r r r r $X$X$X$X$X$X$X$X$X$X$X>X%XM.",
"M.%X>X$X$X$X$X$X$X$X$X$X$X$Xh r r r r r r r r r :X<X<X<X<X<X<X<X<X<X<X<X<X<X<X:Xr r r r r r r r r r $X$X$X$X$X$X$X$X$X$X$X>X%XM.",
"M.%X>X$X$X$X$X$X$X$X$X$X$X$Xr r t y y y y i i i i i i i i i i i i i i i i i i i i i i u y y y t r r $X$X$X$X$X$X$X$X$X$X$X>X%XM.",
"M.%X>X$X$X$X$X$X$X$X$X$X$X$Xc c c c c c c c c c c c c c c c c c c c c c c c c c c c c c c c c c c c $X$X$X$X$X$X$X$X$X$X$X>X%XM.",
"M.%X>X$X$X$X$X$X$X$X$X$X$X$Xc c c c c c c c c c c c c c c c c c c c c c c c c c c c c c c c c c c c $X$X$X$X$X$X$X$X$X$X$X>X%XM.",
"M.%X>X$X$X$X$X$X$X$X$X$X$X$XH c c c c c c c c c c c c c c c c c c c c c c c c c c c c c c c c c c c $X$X$X$X$X$X$X$X$X$X$X>X%XM.",
"M.%X>X$X$X$X$X$X$X$X$X$X$X$X@.c c c c c c c c c c c c c c c c c c c c c c c c c c c c c c c c c c J $X$X$X$X$X$X$X$X$X$X$X>X%XM.",
"M.%X>X$X$X$X$X$X$X$X$X$X$X$X`.c c c c c c c c c c c c c c c c c c c c c c c c c c c c c c c c c c A.$X$X$X$X$X$X$X$X$X$X$X>X%XM.",
"M.%X>X$X$X$X$X$X$X$X$X$X$X$X$X# . . 6.p.p.p.p.p.p.p.p.p.p.p.p.p.p.p.p.p.p.p.p.p.p.p.p.p.p.p.N . . $X$X$X$X$X$X$X$X$X$X$X$X>X%XM.",
"M.%X>X$X$X$X$X$X$X$X$X$X$X$X$X. . V p.p.p.p.p.p.p.p.p.p.p.p.p.p.p.p.p.p.p.p.p.p.p.p.p.p.p.p.6.. . $X$X$X$X$X$X$X$X$X$X$X$X>X%XM.",
"M.%X>X$X$X$X$X$X$X$X$X$X/.C.2.. 5 q.p.p.p.-.6 6 -.p.p.p.p.p.p.p.p.p.p.p.p.p.p.-.6 6 ( p.p.p.p.C . ,.3.Z.$X$X$X$X$X$X$X$X$X>X%XM.",
"M.%X>X$X$X$X$X$X$X$X$X/.) / / @ -.p.p.p.p.6 . . 6 p.p.p.p.p.p.p.p.p.p.p.p.p.p.6 . . 6 p.p.p.p.p.5 / / ) (.$X$X$X$X$X$X$X$X>X%XM.",
"M.%X>X$X$X$X$X$X$X$X$X,./ / / q.p.p.p.p.p.. . . . p.p.p.p.p.p.p.p.p.p.p.p.p.p.. . . . p.p.p.p.p.q./ / / ,.$X$X$X$X$X$X$X$X>X%XM.",
"M.%X>X$X$X$X$X$X$X$X$X/ / / / p.p.p.p.p.p.. . . . p.p.p.p.p.p.p.p.p.p.p.p.p.p.. . . . p.p.p.p.p.p./ / / / $X$X$X$X$X$X$X$X>X%XM.",
"M.%X>X$X$X$X$X$X$X$X$X/ / / / p.p.p.p.p.p.5 . . 5 p.p.p.p.p.5.=.=.;.y.p.p.p.p.5 . . 5 p.p.p.p.p.y./ / / / $X$X$X$X$X$X$X$X>X%XM.",
"M.%X>X$X$X$X$X$X$X$X$X4./ / / t.p.p.p.p.p.-.+ + -.p.p.p.p.9./ / / / 5.p.p.p.p.-.+ . ( p.p.p.p.p.w./ / / ,.$X$X$X$X$X$X$X$X>X%XM.",
"M.%X>X$X$X$X$X$X$X$X$X+X*./ / w.p.p.p.p.p.p.p.p.p.p.p.6.A / / / / / / A -.p.p.p.p.p.p.p.p.p.p.p.w./ / ) /.$X$X$X$X$X$X$X$X>X%XM.",
"M.%X>X$X$X$X$X$X$X$X$X$X|.<./ 9.p.p.p.p.p.p.p.p.p.p.~ . . B / / / / Z . . ~ p.p.p.p.p.p.p.p.p.p.0./ 1. X$X$X$X$X$X$X$X$X$X>X%XM.",
"M.%X>X$X$X$X$X$X$X$X$X$X$X$X$XY.p.p.p.p.p.p.p.p.p.( . . . . . . . . . . . . ! p.p.p.p.p.p.p.p.p.Y.$X$X$X$X$X$X$X$X$X$X$X$X>X%XM.",
"M.%X>X$X$X$X$X$X$X$X$X$X$X$X$X-Xp.p.p.p.p.p.p.p.p.@ . . . . . . . . . . . . + p.p.p.p.p.p.p.p.s.oX$X$X$X$X$X$X$X$X$X$X$X$X>X%XM.",
"M.%X>X$X$X$X$X$X$X$X$X$X$X$X$XOXp.p.p.p.p.p.p.p.p.+ . . . . . . . . . . . . + p.p.p.p.p.p.p.p.a.#X$X$X$X$X$X$X$X$X$X$X$X$X>X%XM.",
"M.%X>X$X$X$X$X$X$X$X$X$X$X$X$X$Xd.p.p.p.p.p.p.p.p.6.C 6 . . . . . . . . 6 C 6.p.p.p.p.p.p.p.p.d.$X$X$X$X$X$X$X$X$X$X$X$X$X>X%XM.",
"M.%X>X$X$X$X$X$X$X$X$X$X$X$XL...o.7.p.p.p.p.p.p.p.p.p.p.p.p.p.p.p.p.p.p.p.p.p.p.p.p.p.p.p.p.7.{ ..J.$X$X$X$X$X$X$X$X$X$X$X>X%XM.",
"M.%X>X$X$X$X$X$X$X$X$X$X$XK.c c c M w w w w w w S K K K K K K K K K K K K K K S w w w w w w M c c c W.$X$X$X$X$X$X$X$X$X$X>X%XM.",
"M.%X>X$X$X$X$X$X$X$X$X$X.Xb c c c c m 4 4 4 4 4 7 x c c c c c c c c c c c c x 7 4 4 4 4 4 m c c c c n @X$X$X$X$X$X$X$X$X$X>X%XM.",
"M.%X>X$X$X$X$X$X$X$X$X$X..c c c K K v s 2 4 4 4 4 7 f c c c c c c c c c c f 7 4 4 4 4 2 s v K K c c c +.$X$X$X$X$X$X$X$X$X>X%XM.",
"M.%X>X$X$X$X$X$X$X$X$X$Xb c L r.p.p.p.p.:.q 4 4 4 4 4 0 l x c c c c x l 0 4 4 4 4 4 q :.p.p.p.p.r.L c b $X$X$X$X$X$X$X$X$X>X%XM.",
"M.%X>X$X$X$X$X$X$X$X$X$Xc L p.p.p.p.p.p.p.7.4 4 4 4 4 4 4 4 4 4 4 4 4 4 4 4 4 4 4 4 7.p.p.p.p.p.p.p.L c $X$X$X$X$X$X$X$X$X>X%XM.",
"M.%X>X$X$X$X$X$X$X$X$X$Xb 8.p.p.p.p.p.p.p.p.4 4 4 4 4 4 4 4 4 4 4 4 4 4 4 4 4 4 4 4 p.p.p.p.p.p.p.p.8.b $X$X$X$X$X$X$X$X$X>X%XM.",
"M.%X>X$X$X$X$X$X$X$X$X$X#.p.p.p.p.p.p.p.p.p.4 4 4 4 4 4 3 , : : : : , 3 4 4 4 4 4 4 p.p.p.p.p.p.p.p.p.#.$X$X$X$X$X$X$X$X$X>X%XM.",
"M.%X>X$X$X$X$X$X$X$X$X$XY.p.p.p.p.p.p.p.p.>.4 4 4 4 4 , = = = = = = = = , 4 4 4 4 4 >.p.p.p.p.p.p.p.p.Y.$X$X$X$X$X$X$X$X$X>X%XM.",
"M.%X>X$X$X$X$X$X$X$X$X$XT.p.p.p.p.p.p.p.p.F 4 4 4 4 < = = = = = = = = = = < 4 4 4 4 F p.p.p.p.p.p.p.p.T.$X$X$X$X$X$X$X$X$X>X%XM.",
"M.%X>X$X$X$X$X$X$X$X$X$X].p.p.p.p.p.p.p.e.9 4 4 4 3 - = = = = = = = = = = - 3 4 4 4 9 e.p.p.p.p.p.p.p.].$X$X$X$X$X$X$X$X$X>X%XM.",
"M.%X>X$X$X$X$X$X$X$X$X$X$Xi.p.p.p.p.p.p.e 4 4 4 4 ; = = = = = = = = = = = = ; 4 4 4 4 e p.p.p.p.p.p.i.$X$X$X$X$X$X$X$X$X$X>X%XM.",
"M.%X>X$X$X$X$X$X$X$X$X$X$X&Xu.p.p.p.p.` 4 4 4 4 1 = = 8 Q ' ' ' ' ' ' Q 8 = = 1 4 4 4 4 ` p.p.p.p.u.*X$X$X$X$X$X$X$X$X$X$X>X%XM.",
"M.%X>X$X$X$X$X$X$X$X$X$X$X$X&XU._ ^ D 4 4 4 4 4 > = * % $X$X$X$X$X$X$X$XO * = > 4 4 4 4 4 D ^ _ U.=X$X$X$X$X$X$X$X$X$X$X$X>X%XM.",
"M.%X>X$X$X$X$X$X$X$X$X$X$X$X$X$X                        !.$X$X$X$X$X$XN.                        $X$X$X$X$X$X$X$X$X$X$X$X$X>X%XM.",
"M.%X>X$X$X$X$X$X$X$X$X$X$X$X$X$X                        ~.$X$X$X$X$X$XN.                        $X$X$X$X$X$X$X$X$X$X$X$X$X>X%XM.",
"M.%X>X$X$X$X$X$X$X$X$X$X$X$X$X$Xl.                    T $X$X$X$X$X$X$X$X&                     z.$X$X$X$X$X$X$X$X$X$X$X$X$X>X%XM.",
"M.%X>X$X$X$X$X$X$X$X$X$X$X$X$X$X$XB.E I $       o U k.$X$X$X$X$X$X$X$X$X$Xx.U I   X T R Y W V.$X$X$X$X$X$X$X$X$X$X$X$X$X$X>X%XM.",
"M.%X>X$X$X$X$X$X$X$X$X$X$X$X$X$X$X$X$X$X$X$X$X$X$X$X$X$X$X$X$X$X$X$X$X$X$X$X$X$X$X$X$X$X$X$X$X$X$X$X$X$X$X$X$X$X$X$X$X$X$X>X%XM.",
"M.%X>X$X$X$X$X$X$X$X$X$X$X$X$X$X$X$X$X$X$X$X$X$X$X$X$X$X$X$X$X$X$X$X$X$X$X$X$X$X$X$X$X$X$X$X$X$X$X$X$X$X$X$X$X$X$X$X$X$X$X>X%XM.",
"M.%X>X$X$X$X$X$X$X$X$X$X$X$X$X$X$X$X$X$X$X$X$X$X$X$X$X$X$X$X$X$X$X$X$X$X$X$X$X$X$X$X$X$X$X$X$X$X$X$X$X$X$X$X$X$X$X$X$X$X$X>X%XM.",
"M.%X>X$X$X$X$X$X$X$X$X$X$X$X$X$X$X$X$X$X$X$X$X$X$X$X$X$X$X$X$X$X$X$X$X$X$X$X$X$X$X$X$X$X$X$X$X$X$X$X$X$X$X$X$X$X$X$X$X$X$X>X%XM.",
"M.%X,X>X>X>X>X>X>X>X>X>X>X>X>X>X>X>X>X>X>X>X>X>X>X>X>X>X>X>X>X>X>X>X>X>X>X>X>X>X>X>X>X>X>X>X>X>X>X>X>X>X>X>X>X>X>X>X>X>X>X,X%XM.",
"M.{.%X%X%X%X%X%X%X%X%X%X%X%X%X%X%X%X%X%X%X%X%X%X%X%X%X%X%X%X%X%X%X%X%X%X%X%X%X%X%X%X%X%X%X%X%X%X%X%X%X%X%X%X%X%X%X%X%X%X%X%X{.M.",
"1XM.M.M.M.M.M.M.M.M.M.M.M.M.M.M.M.M.M.M.M.M.M.M.M.M.M.M.M.M.M.M.M.M.M.M.M.M.M.M.M.M.M.M.M.M.M.M.M.M.M.M.M.M.M.M.M.M.M.M.M.M.M.1X"
};
