/* XPM */
static char *result[] = {
/* columns rows colors chars-per-pixel */
"64 64 204 2 ",
"   c #21201F",
".  c #282726",
"X  c #292827",
"o  c #2C2B2A",
"O  c #232221",
"+  c #353433",
"@  c #3D3C3B",
"#  c #383837",
"$  c #31302F",
"%  c #413F3E",
"&  c #3C5F7C",
"*  c #3C617E",
"=  c #464544",
"-  c #4A4745",
";  c #494947",
":  c #4C4C4B",
">  c #454D4C",
",  c #524E4D",
"<  c #4C514E",
"1  c #45514E",
"2  c #53504E",
"3  c #58544F",
"4  c #454E53",
"5  c #445B5C",
"6  c #485358",
"7  c #555352",
"8  c #595654",
"9  c #5C5956",
"0  c #5D5C5B",
"q  c #54575C",
"w  c #504F50",
"e  c #615B56",
"r  c #615E5C",
"t  c #63615E",
"y  c #475B68",
"u  c #535A64",
"i  c #5B5E62",
"p  c #545E6B",
"a  c #535E70",
"s  c #415970",
"d  c #5A626B",
"f  c #5E6163",
"g  c #596574",
"h  c #5B6A7D",
"j  c #566476",
"k  c #4D7479",
"l  c #49676A",
"z  c #656463",
"x  c #696764",
"c  c #6B6966",
"v  c #6D6B6A",
"b  c #656769",
"n  c #706E6D",
"m  c #72706F",
"M  c #636D78",
"N  c #706F70",
"B  c #757373",
"V  c #787776",
"C  c #797877",
"Z  c #787778",
"A  c #7B7B7B",
"S  c #777778",
"D  c #6F706F",
"F  c #807F7F",
"G  c #80807F",
"H  c #3B6B8C",
"J  c #3A6585",
"K  c #3D6E93",
"L  c #356D90",
"P  c #327A9E",
"I  c #387397",
"U  c #3D7AAB",
"Y  c #436384",
"T  c #4C6B8B",
"R  c #456989",
"E  c #566D86",
"W  c #5F7281",
"Q  c #457C93",
"!  c #417193",
"~  c #537A9D",
"^  c #4F708B",
"/  c #637483",
"(  c #6A7989",
")  c #437BAA",
"_  c #4278A6",
"`  c #517EA1",
"'  c #3B8AB4",
"]  c #3A88B4",
"[  c #3D95B8",
"{  c #3685AE",
"}  c #4B879B",
"|  c #548D98",
" . c #58929A",
".. c #7F8181",
"X. c #70808E",
"o. c #738491",
"O. c #4A83AE",
"+. c #5587AE",
"@. c #5193A4",
"#. c #418AB9",
"$. c #5C8AB3",
"%. c #5688B1",
"&. c #4A9BBC",
"*. c #4594BB",
"=. c #5792B4",
"-. c #6898BA",
";. c #5BA7B6",
":. c #3D8FC2",
">. c #3E93C3",
",. c #4295C5",
"<. c #489CC7",
"1. c #44A2C3",
"2. c #49ABCC",
"3. c #49A7C9",
"4. c #53ABC4",
"5. c #56A8CC",
"6. c #4DB4CC",
"7. c #51B2CE",
"8. c #51B9CE",
"9. c #5EBBCE",
"0. c #4CACD1",
"q. c #53ADD3",
"w. c #5BAED2",
"e. c #55B2D5",
"r. c #5CB3D3",
"t. c #55BCD4",
"y. c #5EBCD4",
"u. c #5BBCD9",
"i. c #5AB6D9",
"p. c #62BDCB",
"a. c #7BB6C7",
"s. c #62B5D3",
"d. c #62BCD4",
"f. c #61BDDC",
"g. c #6CA1C0",
"h. c #59C2CE",
"j. c #56C1D4",
"k. c #5BC3D4",
"l. c #5DC2DB",
"z. c #63CACF",
"x. c #67C7CF",
"c. c #65C1D4",
"v. c #69C3D5",
"b. c #63CCD3",
"n. c #6ACDD5",
"m. c #64C3DB",
"M. c #64CDDB",
"N. c #6ACEDA",
"B. c #69C4D9",
"V. c #75CDDD",
"C. c #7ACFDD",
"Z. c #6BD1D6",
"A. c #64D0DE",
"S. c #6CD4DC",
"D. c #6DD8DE",
"F. c #67D1D7",
"G. c #74D5DB",
"H. c #7BD5DD",
"J. c #74D5D9",
"K. c #65CAE2",
"L. c #6ACEE4",
"P. c #67C5E1",
"I. c #66D1E0",
"U. c #6BD5E3",
"Y. c #6DD8E2",
"T. c #7AD2E0",
"R. c #71D8E0",
"E. c #818182",
"W. c #83BFCF",
"Q. c #8AC8D4",
"!. c #83D6DE",
"~. c #88D7DE",
"^. c #94D5DE",
"/. c #A5D5DC",
"(. c #84D9E0",
"). c #9CDBE3",
"_. c #93DEE4",
"`. c #A4DEE4",
"'. c #9CE3E7",
"]. c #ADE3E4",
"[. c #A4EBEE",
"{. c #A6E6EA",
"}. c #B2E4E6",
"|. c #B6E7E8",
" X c #B4E9EB",
".X c #BBEBEB",
"XX c #BEE5E5",
"oX c #A8EFF2",
"OX c #A8F1F3",
"+X c #BAF5F5",
"@X c #B7F1F1",
"#X c #B5EFF1",
"$X c #CECECE",
"%X c #D5D5D5",
"&X c #C5EAE9",
"*X c #C8EDED",
"=X c #C2E6E6",
"-X c #C7F0EF",
";X c #C7F2F2",
":X c #E6E6E6",
">X c #EEEEEE",
",X c #F1F1F1",
"<X c #F9F9F9",
"1X c None",
/* pixels */
"1X%X%X%X%X%X%X%X%X%X%X%X%X%X%X%X%X$XN O . X o o . o o . X X o o o . . . . . . . X X X X O N $X%X%X%X%X%X%X%X%X%X%X%X%X%X%X%X%X1X",
"%X:X>X,X>X>X>X>X>X,X>X>X>X,X>X>X:XA = - c N B n c B B n n c n B B m n n v c c c c c v c = % Z :X>X>X>X>X>X>X>X>X>X>X>X>X>X>X:X%X",
"%X>X<X<X<X<X<X<X<X<X<X<X<X<X<X,XF 8 c 3 c E.z c x x x x x c c c x c c c c c c x c z F b 8 x , F ,X<X<X<X<X<X<X<X<X<X<X<X<X<X,X%X",
"%X,X<X,X>X>X>X,X>X>X>X>X>X>X:XA 8 c Z c z c c c x c c c c c c c c c c c c c c x c c c r v Z b 7 A :X>X>X>X>X>X>X>X>X>X>X,X<X>X%X",
"%X>X<X>X>X>X>X:X>X>X>X>X>X:XA 0 c x N N r N v v x c c n c v v v c c n c v v v c c v B r v N x c 7 Z :X>X>X>X>X>X>X>X>X>X>X<X,X%X",
"%X>X<X>X>X>X>X>X>X>X>X>X:XA 0 x z c c v c N v v v c v n c n v N v n n c v v n v c N v N v c c x v 7 Z :X>X>X>X>X>X>X>X>X>X<X>X%X",
"%X>X<X>X>X>X>X>X>X>X>X:XA r v x c c v v r = 8 7 3 7 7 8 7 8 8 8 7 8 8 7 3 8 3 3 2 e % t c v c c z n 8 V :X>X>X>X>X>X>X>X>X<X>X%X",
"%X,X<X>X>X>X>X>X>X>X:XA 0 v x x v v v 8 8 c Z B N N N c , , w , : 7 w , c n B n N Z v 2 r v v c c x n 8 V :X>X>X>X>X>X>X>X<X,X%X",
"%X>X<X>X>X>X>X>X>X:XA t v x x c v v 8 8 m F v N n B Z r 8 x x x z x x 3 b B B N B c A v 3 e v c e e t m 0 S :X>X>X>X>X:X>X<X>X%X",
"%X>X<X>X>X>X>X>X:XC t v x x c v n 8 8 m c F z F Z B Z n e n v n v N N 8 B B Z B F c B N n 3 r x e e e e v 0 C :X>X>X>X>X>X<X,X%X",
"%X>X<X>X>X>X>X:XA t v x x c x m 8 8 n x 8 x B N F B Z Z r B n m B B N r F B Z Z N Z b e v n - , e e e t x v 8 A :X>X>X>X>X<X>X%X",
"%X>X<X>X>X>X:XC 0 v x x c v v 8 e n n x 3 e F z F Z F F N v F ( F F b N A Z A F b A z t B n n 2 3 t t c x x m 9 V :X>X>X>X<X>X%X",
"%X>X<X>X>X:XC r v x c c v v 9 9 n n x x e e N v B Z A A F B N B B B Z Z F Z A B N Z v x B B B n 3 t v x c c x n 8 S :X>X>X<X>X%X",
"%X>X<X>X:XC r v x x c v m 9 8 m n n v x t r 8 n 7 r b b x v v v v N v N c b f q F c B c F V B B m 8 r v v c c x v 8 S :X>X<X>X%X",
"%X>X<X:XA t v x c c v v 0 8 z 0 B F n n n c F t i a a M E W / / / W M E h g i w v ( n F B B V B t t 8 r v v c x x v 7 A :X<X>X%X",
"%X>X>XA 0 c x x v v n 9 8 m 0 x z B F F F E.d q W E ` ` ` $.-.-.-.-.$.` ` ` E h 6 b E.F F V V x x 0 v 3 t v v v c x c 7 A ,X,X%X",
"%X:X..9 c x c v c n 8 8 B B B z n x A A G b p E ! I { [ :.>.5.5.5.<.>.>.[ { P R E y v A F A c n z m B m 7 r v v c c x c 3 F :X%X",
"$XA 3 x x x v c n 8 8 n B B V V x x A E.r 6 T ) { [ 1.3.0.0.u.P.P.i.0.2.3.&.[ ' _ T 4 z F A x c B B B B n 7 r v v c x x c : A $X",
"D : x G v v v v 8 9 n B B B Z A A Z A i : 6 K ' <.2.6.t.u.l.I.L.L.P.l.j.8.6.2.<.#.R 6 - t A F B C C S B B n 7 0 n c c x E.x = v ",
"  = 0 m c v v 8 8 n c B V V A A A E.i ; < y Q <.6.j.h.h.l.I.U.U.U.L.A.k.j.j.k.2.*.! 5 : = t ( A A A C V B n n 7 r v n n v 8 =   ",
"$ x x 0 t v 9 3 B v 8 t b B A A F 0 : > 5 k | 4.j.A.k.b.Z.R.R.Y.Y.Y.G.Z.z.b.M.k.4.| k 1 1 : t E.A A V c z 8 n m 3 t m 0 0 x x X ",
"$ c E.v B x = D A B b z n N N E.z 4 4 5 k | ;.y.M.U.F.b.Z.G.G.T.G.H.J.S.z.F.U.M.9.;.| k y < > v E.B c n z r B A v @ v B v E.v . ",
"$ x x v v x z S x v Z A N b A b p Y H Q | ;.9.b.S.D.v.x.v.v.c.c.c.v.v.v.v.n.D.A.n.9.;.| Q H Y a v ( x n A A v b V 0 n v v x x X ",
"$ x z x v z 8 B A A N x B F z u Y U ' *.4.y.M.U.D.Z.c.s.w.w.q.q.q.q.w.s.s.b.Z.D.D.n.9.&.*.] U s 6 v F B z v Z B v , v v x x x . ",
"$ x x v v x 0 m V V A G B 7 i s L ] <.6.k.A.U.D.M.c.d.r.s.d.y.y.u.u.d.y.r.s.B.Z.Y.U.M.k.7.<.{ L y q 7 B F A Z B B 8 v v v x x X ",
"$ x x c n c r m V V C C Z q d J P [ 2.u.A.Y.S.Z.c.r.i.f.V.H.H.G.H.H.!.V.d.i.d.c.Z.S.S.M.j.2.[ P & p 0 A A A A B B 7 v v b x x X ",
". x e e t t 8 B B B C C A z h ! ' 1.6.j.k.Z.n.c.s.i.l.V.).}.].].].].}.).V.f.i.d.v.N.n.b.j.6.1.{ K j 0 A Z V B B v 8 v v c x x . ",
". v 9 e e 9 7 x x V A A A z h _ [ 2.8.h.z.x.x.s.i.f.V._.}.&X=XXXXXXX&X|._.V.d.i.p.v.z.z.h.8.3.[ _ j z A A A B z v 8 v v c x x . ",
". v e e e e 8 ; 8 0 z V A b E _ >.0.u.K.F.Z.d.r.d.V.).|.|.]././././. X.X X).V.f.s.p.J.S.l.u.0.,._ h t Z B z 9 8 , 9 n v v c x X ",
". m c t x x 9 2 c m B r A b W ) ,.q.l.U.D.S.c.r.c.!.].&X X'.~.Q.W.^.{.@X;X}.T.d.s.v.H.D.U.f.q.,._ E z V x m n x , 9 n v c c x X ",
"X m t x c x e 2 c n V B A z W O.0.i.P.U.R.S.d.e.c.(.].*X@X'.Q.a.a.^.oX+X;X X(.u.e.B.H.Y.U.K.i.<.O.h z B A B n x , 9 n v v x x X ",
"X V c c v c t 2 x n B N V z / =.q.f.K.U.R.J.d.e.l.!.].-X+XoXQ.a.Q._.OX+X;X XH.u.e.N.R.Y.I.K.u.5.+.W b B F V n t , 8 v v x x x X ",
"$ B c c v x r , c n V B A z ( =.s.P.Y.Y.Y.J.c.q.l.(. X;X+XOX_.Q.^.{.OX+X;X XH.l.e.B.H.R.Y.U.P.w.$./ b B A V n x , 8 n v c x c X ",
"+ n x x b z 0 , x n V m A b / =.w.P.L.Y.G.S.d.e.f.T. X;X+XOX).).{.{.OX@X*X}.H.u.w.v.H.D.U.L.P.5.+.W q v Z B v b , 8 n v c c c X ",
"# m x c n c 0 , c m V b A z / ) <.i.m.U.Y.S.d.w.c.!.|.*X+XOX'.[.oXOX[. X&X|.!.c.w.v.H.D.U.l.e.<.) h 7 v D V m x 2 8 n v c x c X ",
"% v x c n x 0 - 0 0 i N S z W ) :.0.u.M.Z.n.x.r.d.C.`..X@X#X X X X@X X X|.).V.y.s.x.Z.S.M.u.0.:._ h 9 m v r r 8 , 7 v v c c m X ",
"% v x x c z 0 r r B A A A z h ) >.2.t.j.b.x.v.s.u.m.T.)..X&X=XXX=X=X&X|._.T.m.i.d.x.x.x.k.8.2.>._ h z A A A B r x 9 m v v c m X ",
"- c c c n x r B V V A A A i g I :.<.8.j.b.Z.n.c.d.i.m.T.`.}.}.].].}.}.`.H.m.f.d.B.n.Z.b.k.7.1.{ K j z A A A C B m 3 n v c c V o ",
"= x x x x z 0 n B V V A A 0 d J P [ 6.j.A.Y.S.N.d.f.f.m.H.~.(.(.(.(.(.C.c.u.s.v.Z.D.Y.A.k.6.[ P * p 0 A A S B B m 8 v c c x m X ",
"@ n x x v x r m N B A F V , d s L ' 3.7.l.I.Y.G.n.c.f.s.d.B.B.B.B.B.B.d.f.d.B.N.D.Y.A.l.6.1.] L s q 7 A A A C B m 8 m v v x V X ",
"+ m v c v x 8 m V A B b n A i p J U [ <.4.c.M.Y.D.Z.c.d.r.w.e.e.e.e.r.s.d.v.Z.D.Y.M.d.4.<.[ U Y u f A v b B A B B 8 m v c x m o ",
"+ m t x c x t C v z V A B x E.i j R I Q @.;.d.I.D.D.n.c.x.9.d.y.y.d.9.c.v.Z.D.D.M.x.;.@.Q L Y a i ..v A A V x D A 8 v v v z m X ",
"@ v G v B v : v A V z x N b B E.i 6 6 l k  .;.c.U.Y.Z.z.b.n.N.n.N.n.n.n.z.Z.Y.A.c.;. .k 5 4 4 f E.v B x x D A C x - m B v G m . ",
"+ x v z 0 v 3 t B c 0 z v B A A E.8 < 1 5 k @.7.l.A.b.b.n.S.G.Y.D.S.D.Z.b.b.A.k.;.@.k 5 > : 0 E.A Z v x z 0 m B 9 0 v 0 t v v . ",
"O ; 8 c B v v 2 r n v B B V A F F F 9 : < 5 } &.7.k.k.h.K.U.Y.Y.Y.Y.U.M.j.j.k.8.&.} l 1 > 0 E.A A A V V n x m 9 3 v v m v 3 :   ",
"D < x ..x v v v 7 r B n V V V A C F ( q < 5 K *.3.6.8.t.l.P.L.L.L.L.K.u.8.8.6.&.' L 6 : 0 A A A A A V B B m 9 8 D v c c ..x = v ",
"$XA t x x x c v v 8 r B B B V B x x A E.7 6 R ) ' [ 2.0.0.e.u.P.P.i.e.0.2.1.[ ' ) T 4 7 A v 0 t c c x x x 8 2 x x x c x c 8 A $X",
"%X:XE.t x x c v v c 8 r n B B x n x A A E.u h ^ I P [ >.>.<.w.r.w.5.<.,.>.' { ! ^ p f E.A V v v v B B m 3 3 t t t t e c 9 ..:X%X",
"%X>X,XA b x x v v v v 8 t m 0 x x V Z A F E.i p E T ` %.%.$.-.g.g.-.$.%.+.` T h u f E.G A C B z x z m 0 9 v v v x x x r A ,X>X%X",
"%X>X<X:XA x x x c c x c 2 0 9 9 c c v c n x V q z M M / ( ( o.o.o.( ( ( / M M u i E.A A A C V m 8 t r 8 n v c c c c r A :X<X>X%X",
"%X>X<X>X:XA x x x t e t t , 3 v n B V V n n v A 7 z z b b x b b b z b b z 0 r 7 A b x C C B V m n 0 8 v v v c x c t A :X>X<X>X%X",
"%X>X<X>X>X:XA x x x x c n n 3 t B B B V x v V N V A A A A A A A A Z A A A A A B B v B v C B m m 0 9 v v v c x c t F :X>X>X<X,X%X",
"%X,X<X>X>X>X:XA x c x c c n c 8 r B B m z b A b A A A A m z B B B v z V A A F F z Z z z B m m 0 8 v v c c x v t C :X>X>X>X<X>X%X",
"%X>X<X>X>X>X>X:XA c c x x c n c 7 0 m x 9 v C B A A A C 0 V V C S V N z V A Z A v S f 9 m m r 8 n v v c x v t A :X>X>X>X>X<X>X%X",
"%X>X<X>X>X>X>X>X:XA x c x x c n v 7 r m n C c ..C C C B 0 n n m m N v 9 N Z V Z A b n b m 0 8 m c c c x v t A :X>X>X>X>X>X<X>X%X",
"%X>X<X>X>X>X>X>X>X:XA c x x c c v v 3 t m A v B V B B z 0 c x v c b v 9 c B B B V v Z n 0 3 v v v c x v t A :X>X>X>X>X>X>X<X>X%X",
"%X>X<X>X>X>X>X>X>X>X:XA x x x x c v v 3 r v A B n n B t : , , , 3 , , - x B N B D S v 0 7 v v x x x c t C :X>X>X>X>X>X>X>X<X>X%X",
"%X>X<X>X>X>X>X>X>X>X>X:XA b x x x v v n 8 : x t e 3 3 3 9 t e r t t t r z r r r 0 c = 8 v v v v x v t A :X>X>X>X>X>X>X>X>X<X>X%X",
"%X>X<X>X>X>X>X>X>X>X>X>X:XA x c x c v v v x b x t t 3 e 8 8 3 3 9 r r r x x z z t x b v v v c x c t C :X>X>X>X>X>X>X>X>X>X<X>X%X",
"%X>X<X>X>X>X>X>X>X>X>X>X>X:XA z x x x v 0 V c v n c v c c t r r t e e e e v c v x v B t n x x c t A :X>X>X>X>X>X>X>X>X>X>X<X>X%X",
"%X>X<X>X>X>X>X>X>X>X>X>X>X>X:XA r x E.v z n c c c x c c c c c x c c v x v v x v x c v t v G c 8 A :X>X>X>X>X>X>X>X>X>X>X>X<X>X%X",
"%X>X<X<X<X<X<X<X<X<X<X<X<X<X<X,XE.r x 0 c E.z c x x c c x x x x c x x x x x x x x x E.c 0 x 0 E.,X<X<X<X<X<X<X<X<X<X<X<X<X<X>X%X",
"%X:X>X,X>X,X>X>X>X>X>X,X>X>X>X>X:XA , - x c n n B B B B n n v x c n v B B V n n c x x x = : A :X>X>X>X>X>X>X,X>X>X>X,X>X>X,X:X%X",
"1X%X%X%X%X%X%X%X%X%X%X%X%X%X%X%X%X$Xn   $ # # % = ; ; - > ; = = = - - = = - = @ $ $ $ o   D $X%X%X%X%X%X%X%X%X%X%X%X%X%X%X%X%X1X"
};
