/* XPM */
static char *result[] = {
/* columns rows colors chars-per-pixel */
"64 64 67 1 ",
"  c #21201F",
". c #232221",
"X c #282726",
"o c #292827",
"O c #2C2B2A",
"+ c #302F2E",
"@ c #31302F",
"# c #353433",
"$ c #383837",
"% c #3D3C3B",
"& c #413F3E",
"* c #464544",
"= c #4B4745",
"- c #494847",
"; c #4D4C4A",
": c #524E4D",
"> c #53504E",
", c #58544F",
"< c #565352",
"1 c #595654",
"2 c #5C5956",
"3 c #575758",
"4 c #5D5C5A",
"5 c #615B56",
"6 c #615E5C",
"7 c #63615E",
"8 c #666463",
"9 c #696764",
"0 c #6B6966",
"q c #676868",
"w c #6D6B6A",
"e c #706E6D",
"r c #6F706F",
"t c #72706F",
"y c #706F70",
"u c #6F7070",
"i c #757373",
"p c #787776",
"a c #797877",
"s c #777778",
"d c #787778",
"f c #777878",
"g c #7C7B7B",
"h c #807F7E",
"j c #81807F",
"k c #7F8181",
"l c #858483",
"z c #888786",
"x c #898887",
"c c #878888",
"v c #8C8B8A",
"b c #908F8E",
"n c #91908F",
"m c #949392",
"M c #989797",
"N c #9C9B9B",
"B c #A4A4A3",
"V c #ACACAB",
"C c #B0B0AF",
"Z c #B3B3B3",
"A c #CECECE",
"S c #D5D5D5",
"D c #E6E6E6",
"F c #EEEEEE",
"G c #F1F1F1",
"H c #F9F9F9",
"J c None",
/* pixels */
"JSSSSSSSSSSSSSSSSAw.XooooOOoXXXo+oOooo OXXoX eASSSSSSSSSSSSSSSSJ",
"SDFGFFFFFGFFFGFFDg*-wtit0ittewtiittw00000we0**gDGGFFFFFFFFFFFFDS",
"SFHHHHHHHHHHHHHGl<0<0k99999090999900000998lq29;gGHHHHHHHHHHHHHGS",
"SGHGFFFGFFFFFFDg10p9899w90009w0w9000000099w69s0<fDFFFFFFFFFFGHFS",
"SFHFFFFDFFFFFDg209ye2yww00ww0wewwwwwwwe00wi4ee9w<fDFFFFFFFFFFHFS",
"SFHFFFFFFFFFDg4090wwwywwwwwe0ewwqew0e0e0wewyw909w<fDFFFFFFFFFHFS",
"SFHFFFFFFFFDg4w909we4*2<:1<2<<23122<<1,,>2&80w008w2gDFFFFFFFFHGS",
"SGHFFFFFFFDg6w990ww320iieyy0::::;:::0tteepw:1ewq99w1gDFFFFFFFHFS",
"SFHFFFFFFDg6w990e011yhwiyii71999899<8iiii0gw,2ew557e4gDFFFFFFHFS",
"SFHFFFFFDf7w990w011eea8gpddy5eeewee1isdig0iit:595555r1gDFFFFFHFS",
"SFHFFFFDg8w8909t15t019pydpgg4iiyppy6sissyg83ee=:55579w2aDFFFFHFS",
"SFHFFFDa4w990ww15tt7,6h8ggggywgdggqygggk8g88tie:,77999t5iDFFFHFS",
"SFHFFDg6w90www22ee7916ywdghhhaiipdggggksiiwqiiie,7w9099t1fDFFHFS",
"SFHFDa4w990wt22tiie9755y3qyyeippgdgiiiq3gwiussiit15ww9w7r1fDFHFS",
"SFHDg7w990ww2274ipeee0jq7ewyipphpiiiyww2ukwggisp7815ww099w<fDHGS",
"SFFg40990ew21i499pghhxwqmMNBBVCZZZVBBNMv4ilfggiq84t<7www99w<fGFS",
"SDk209w09e21eii8e9ggciqvmNNBBVZZZCVBBBMnc4ilgg0y8tit<2eww090>gDS",
"Ag,9990we22eiipp89gcy0cbmMNBBCZZZCVBBNMmnl4slg90iiiiy<6ww0990:gA",
"r-9k9www11eiipdgggcy0lvbmNNBBCCZZZVBNNMmvcl4shgiaaiiie<2ew09l9*w",
" *6r0wt11ewypddggcyqhlvbmMNBBCCZZCVBBNMnnvlg4ilggggaiee<2eeew1*.",
"@9967r1,iw38qiggze0ghlvbmMNBVVZZZCVBBMMmbcljp5plggs08<ye<7t4499X",
"+0kwi9*rgi88yyuleeiajzvbmNNBBVZZZCCBBNMnvvljhi5pli0u88igw&0iwkwX",
"O090w98p8wggyqkuqiphhzvbmMNBBVZZZCVBBNMmbxlhhtt7ik8ugsqqi4eww99X",
"@089w82tggyqigwweeihhlxbmNNBBCZZZZVBBNMmbxlhhpte7wgi8wfsu>ww999X",
"O09w005iiaghi3w0etphjxvbmMNBVVCZZCVBBNMnbxlhhitww63shgppi<ew090X",
"@090e06ippppf8i8eepgjjvbmNNBBVCZZCVBBNMnbxlhhitwqw8hggppi<w9999X",
"o055762yiidghyi0etihjxvbmMNBVVZZZCVVBNMmbxljpiee8wwgdpiyt<ww099X",
"o02552<00igghii00eihjjxbmMNBBVZZZZVBBNMmbvjhhitw9uwgggp9w<eww90X",
"o0555,2-328djip9eiphhjvbMMNBBCZZZCVBBNMnbxlhgiiw9rwgi62<>,ew099o",
"ot99994>0iy6gidq0iipjjvbmMNBBVZZZCVBBMMmbxlhgitwqiyg9ty0>1eww99o",
"ot79095>wypihyg9eiphjjbbmMNBVVZZZZVBBNMnbxjhgptwqiwsgpe9>1eww90o",
"Oi0we96:9wiygyg9etphjxvbMMNBBVCZZCVBBNMmnxlhgpiw8iyfgpe9:1e0999o",
"+i00wq4>0iiigig0etpajzxbmNNNVVZZZCVBBNMnbxjhhite9itpgii9:2eww90X",
"#e99084:9wsigug0eepgjlxbmNNBBVZZZCVBBNMmbvlhhptw9i9egiw8:<ew000X",
"$e00w06>0iiqhug8eephjlxmmNNBVVZZZCVVBNMnbxlhhhww9i5eyit9<2ww00eX",
"&e00eq2=424igys0etphjlcbmMNBBVZZZZVBBNMmbvjhiie00e7ew661;<ww00eX",
"&w99q9477igghus0etphjcxbmMNBBVCZZCVBBNMnbxlhgpee9eygggi491ew09to",
"=990w92iiggghwi8eeihklvmmNNBVVCZZCVBBMMmbxlhgpt09ewkgggii,eew0pO",
"*999994eidsgg0iqetphjlvnmMNBBVZZZZVBBBMmbxhhhiee9w8ggfiit<w009to",
"%e90eq2iyiggs<yqwtipjlvnmMNBVVZZZCBBBNMnbxjhhiee993ggggii1eww9iO",
"#t90w91tiji8yg6yetphhlvbmNNBVVZZZCVBBNmmbxlhgiee08fw0igpi,www9io",
"@i99997gw9ihiql8eipahjxbmMNBBVZZZZVBBNMmbxlhgii0qlugki8tg1ew09to",
"$0l0i0-0gp89y0sc9eahhlvbmNNBVVCZZCVBBNMmbxlhgpqwlui08wga9-iiwjeo",
"$9w86w<8yw290igkx0ehhlvbmMNBBVCZZCVVBNMnbxlhgqwcgsw994tt22w47wwX",
".;19iww<6ywipdgghc9ihxvbmMNBVVZZZCVBBNMmbxlh0qchggsie9t21wwt9>-.",
"r;9k90ww<6ieppdgghcqpjvbmNNBBVZZZCVVBNMmbxl0wcgggsgiit21www9l9*r",
"Ag69909we:6iypgp9qgx9ixbmMNBVVCZZCVBBNMnbl09jy66w09992,7990901gA",
"SDl7999we0<6eiy8eqghx9pbmMNBBVZZZZVBBMMnb0wzgd0y0iie,,7777402jDS",
"SFGg8990www<7t499gdhgz8pmMNBVVCZZCVBBNMn0qcggii898i210e00906gGFS",
"SGHDgq090009>5210000e9g4illlcvnmmnbvlljqqlggggit1761ee00907gDHFS",
"SFHFDg9997577>1weiiaeewg3wuiisiiiyyiywq3gq9fgiiii21we00907gDFHFS",
"SFHFFDg9999wew17iiip9wpygkgjkhkgkghjgjjii0iwpiii22ww009w7gDFFHFS",
"SGHFFFDf90900w017iit88k8kggge8iiiy7idggj8s88iit22we00907gDFFFHFS",
"SFHFFFFDg90900ew14t840pigggg4iigsiy8pgggws64ti41ww00907gDFFFFHFS",
"SFHFFFFFDg90900ww<4iea9kpaai4ietyyy3ygddgqyqt52www9909gDFFFFFHFS",
"SFHFFFFFFDg90900ww<5tgrpiip74w900ww3qiiidqgy2,www09w7gDFFFFFFHGS",
"SGHFFFFFFFDg999900w>7wgt0et9=::::>:=9iyirpw4<www0997sDFFDFFFFHFS",
"SFHFFFFFFFFDg8999wwe1;875,,,28658785776669*1ww0w998fDFFFFFFFFHFS",
"SFHFFDFFFFFFDg9w9wwww089885,111,55669988888rww09w7gDFFFFFFFFFHFS",
"SFHFFFFFFFFFFDg8999r4iwrw0w0076565656wqw9wi6w0904gDFFFFFFFFFFHFS",
"SGHFFFFFFFFFFFDg69kw890w000ww009w0w9009090r7wk91gDFFFFFFFFFFFHGS",
"SFHHHHHHHHHHHHHGl593wl99990999980999009099k9494lGHHHHHHHHHHHHHGS",
"SDGFFGFGFFFFFFFFDg:-90weiiiiiww00eeeiiee0999*;gDFFFFFGFGFFFFFGDS",
"JSSSSSSSSSSSSSSSSAr +$%%*-==**=***-*==*%@O++ rASSSSSSSSSSSSSSSSJ"
};
