/* XPM */
static char *_b7928ca0966498dcb7091f4aed7798b99NRnWSbQUq0YiIa[] = {
/* columns rows colors chars-per-pixel */
"64 64 8 1 ",
"  c None",
". c #6486AF",
"X c #7BADC5",
"o c #7CADC5",
"O c #8DB0CE",
"+ c #8FBAD2",
"@ c #96BFD6",
"# c #9CC0D9",
/* pixels */
" XooooooooooooooooooooooooooooooooooooooooooooooooooooooooooooX ",
"X+@@@@@@@@@@@@@@@@@@@@@@@@@@@@@@@@@@@@@@@@@@@@@@@@@@@@@@@@@@@@+X",
"o@#OOOOOOOOOOOOOOOOOOOOOOOOOOOOOOOOOOOOOOOOOOOOOOOOOOOOOOOOOO#@o",
"o@O..........................................................O@o",
"o@O..........................................................O@o",
"o@O..........................................................O@o",
"o@O..........................................................O@o",
"o@O..........................................................O@o",
"o@O..........................................................O@o",
"o@O..........................................................O@o",
"o@O..........................................................O@o",
"o@O..........................................................O@o",
"o@O..........................................................O@o",
"o@O..........................................................O@o",
"o@O..........................................................O@o",
"o@O..........................................................O@o",
"o@O..........................................................O@o",
"o@O..........................................................O@o",
"o@O..........................................................O@o",
"o@O..........................................................O@o",
"o@O..........................................................O@o",
"o@O..........................................................O@o",
"o@O..........................................................O@o",
"o@O..........................................................O@o",
"o@O..........................................................O@o",
"o@O..........................................................O@o",
"o@O..........................................................O@o",
"o@O..........................................................O@o",
"o@O..........................................................O@o",
"o@O..........................................................O@o",
"o@O..........................................................O@o",
"o@O..........................................................O@o",
"o@O..........................................................O@o",
"o@O..........................................................O@o",
"o@O..........................................................O@o",
"o@O..........................................................O@o",
"o@O..........................................................O@o",
"o@O..........................................................O@o",
"o@O..........................................................O@o",
"o@O..........................................................O@o",
"o@O..........................................................O@o",
"o@O..........................................................O@o",
"o@O..........................................................O@o",
"o@O..........................................................O@o",
"o@O..........................................................O@o",
"o@O..........................................................O@o",
"o@O..........................................................O@o",
"o@O..........................................................O@o",
"o@O..........................................................O@o",
"o@O..........................................................O@o",
"o@O..........................................................O@o",
"o@O..........................................................O@o",
"o@O..........................................................O@o",
"o@O..........................................................O@o",
"o@O..........................................................O@o",
"o@O..........................................................O@o",
"o@O..........................................................O@o",
"o@O..........................................................O@o",
"o@O..........................................................O@o",
"o@O..........................................................O@o",
"o@O..........................................................O@o",
"o@#OOOOOOOOOOOOOOOOOOOOOOOOOOOOOOOOOOOOOOOOOOOOOOOOOOOOOOOOOO#@o",
"X+@@@@@@@@@@@@@@@@@@@@@@@@@@@@@@@@@@@@@@@@@@@@@@@@@@@@@@@@@@@@+X",
" XooooooooooooooooooooooooooooooooooooooooooooooooooooooooooooX "
};
